<svg xmlns="http://www.w3.org/2000/svg" viewBox="0 0 280 51"><g fill="#231F20"><path d="M131.8 30.9c0-.2.1-.3.1-.4 0-.1-.5-.3-.6-.3-.1 0-.2.3-.2.4-.7 1.5-1.5 2-3.2 2-2.7 0-4.3-2.4-4.3-4.9 0-2.5 1.5-4.8 4.2-4.8 1.8 0 2.4 1 3.3 2.5l.5-.1c.1 0 .1 0 .1-.1s-.2-1.3-.3-1.9c0-.1-.1-.2-.3-.3-1-.5-2.3-.8-3.4-.8-3.1 0-6.3 2.1-6.3 5.4 0 3.8 2.8 5.8 6.4 5.8 1.3 0 2.5-.3 3.7-.8l.3-1.7zM141.3 27.4c0-2.5.9-4.4 3.6-4.4 3 0 4.1 2.9 4.1 5.6 0 2.2-1.3 4.1-3.7 4.1-2.6 0-4-3-4-5.3m-2.2.6c0 3.3 2.6 5.5 5.7 5.5 3.5 0 6.4-2.2 6.4-5.9 0-3.2-2.8-5.3-6.1-5.3-3.3-.1-6 2.3-6 5.7M162 24c0-.8.6-.9 1.3-.9.1 0 .2-.1.2-.2v-.3c0-.1 0-.1-.1-.1-.6 0-1.3.1-2 .1-1.5 0-2.4-.1-2.6-.1-.1 0-.2.1-.2.1v.4c0 .1 0 .1.2.1.9 0 1.3.4 1.3 1.6v6.4c0 1.3-.2 1.6-1.3 1.6-.1 0-.2.1-.2.2v.3c0 .1.1.1.1.1 1.2 0 3.1-.1 4.1-.1 1 0 2.7.1 4.1.1.1-.5.3-1 .4-1.6.1-.3.2-.7.2-.8 0-.1-.4-.2-.5-.2-.1 0-.1 0-.2.1-.9 1.6-1 1.7-2.9 1.7-1.5 0-1.7-.4-1.7-1.3V24zM177.9 27.8h1.5c.6 0 1.1 0 1.2.4.1.3.1.6.1.9 0 .1 0 .1.1.1h.3c.1 0 .1-.1.1-.2v-1.4-1.7c0-.1 0-.1-.2-.1h-.3c-.1 0-.1 0-.1.1-.2 1.2-.7 1.2-1.9 1.2h-1v-2.7c0-1.2.2-1.3 1-1.3h1.4c1 0 1.4.2 1.5 1.4 0 .2 0 .3.1.3h.3c.1 0 .2-.1.2-.2v-1-1c0-.1 0-.2-.1-.2-1.6 0-3.3.1-4.9.1-.8 0-2-.1-2.6-.1-.2 0-.3 0-.3.1v.3c0 .1.1.1.3.1.5 0 1.1 0 1.1.8v7.5c0 1-.4 1.2-.9 1.2-.4 0-.5.1-.5.2v.3c0 .1.1.1.1.1.9 0 1.8-.1 2.7-.1 1.9 0 3.8.1 5.6.1.2-.8.4-1.3.6-1.9v-.2c0-.2-.4-.2-.6-.2-.1 0-.1 0-.3.2l-.5.7c-.3.5-.4.8-1.1.8h-2.1c-1 0-1.2-.4-1.2-1.2v-3.4zM201.2 30.9c0-.2.1-.3.1-.4 0-.1-.5-.3-.6-.3-.1 0-.2.3-.2.4-.7 1.5-1.5 2-3.2 2-2.7 0-4.3-2.4-4.3-4.9 0-2.5 1.5-4.8 4.2-4.8 1.8 0 2.4 1 3.3 2.5l.5-.1c.1 0 .1 0 .1-.1s-.2-1.3-.3-1.9c0-.1-.1-.2-.3-.3-1-.5-2.3-.8-3.4-.8-3.1 0-6.3 2.1-6.3 5.4 0 3.8 2.8 5.8 6.4 5.8 1.3 0 2.5-.3 3.7-.8l.3-1.7zM219 30.9c0-.2.1-.3.1-.4 0-.1-.5-.3-.6-.3-.1 0-.2.3-.2.4-.7 1.5-1.5 2-3.2 2-2.7 0-4.3-2.4-4.3-4.9 0-2.5 1.5-4.8 4.2-4.8 1.8 0 2.4 1 3.3 2.5l.5-.1c.1 0 .1 0 .1-.1s-.2-1.3-.3-1.9c0-.1-.1-.2-.3-.3-1-.5-2.3-.8-3.4-.8-3.1 0-6.3 2.1-6.3 5.4 0 3.8 2.8 5.8 6.4 5.8 1.3 0 2.5-.3 3.7-.8l.3-1.7zM227.5 31.6c0 .8-.5 1-1.2 1-.2 0-.2 0-.2.1v.4c0 .1.1.1.1.1.8 0 1.6-.1 2.4-.1.7 0 1.4.1 2.1.1.1 0 .2 0 .2-.2v-.3c0-.1 0-.1-.2-.1-.8 0-1.3-.1-1.3-1V24c0-.7.4-.9 1.1-.9.2 0 .3 0 .3-.1v-.4c0-.1-.1-.1-.2-.1-.4 0-1.3.1-2.3.1-1.1 0-1.9-.1-2.1-.1-.1 0-.1.1-.1.1v.4c0 .1.1.1.2.1.7 0 1.1.1 1.1.9v7.6zM240.3 27.4c0-2.5.9-4.4 3.6-4.4 3 0 4.1 2.9 4.1 5.6 0 2.2-1.3 4.1-3.7 4.1-2.6 0-4-3-4-5.3m-2.2.6c0 3.3 2.6 5.5 5.7 5.5 3.5 0 6.4-2.2 6.4-5.9 0-3.2-2.8-5.3-6.1-5.3-3.2-.1-6 2.3-6 5.7m4.9-6.3h.8l2.4-1.5c.2-.1.4-.3.4-.5 0-.5-.3-.7-.8-.7-.3 0-.5.2-.7.4l-2.1 2.3zM261.3 22.8c-.1-.1-.2-.3-.4-.3-.7 0-1.3.1-1.9.1-.5 0-1-.1-1.6-.1-.1 0-.2.1-.2.1v.4c0 .1.1.1.2.1 1.5 0 1.7.1 1.7 2.6V31c0 1.5-.5 1.6-1.4 1.6-.1 0-.2.1-.2.2v.2c0 .1.1.2.3.2.7 0 1.4-.1 2-.1.6 0 .8.1 1.5.1.2 0 .2 0 .2-.1v-.3c0-.1-.1-.1-.3-.1-.9 0-1.2-.1-1.2-1.7v-5.5c0-.1 0-.7.1-.7s.2.2.4.4l6.2 7.1c.2.3.5.5.9 1 .2.2.3.2.8.2.1 0 .2 0 .2-.1V25c0-1.5.2-1.8 1-1.9.4 0 .5 0 .5-.2v-.3c0-.1-.1-.1-.2-.1-.4 0-.8.1-1.4.1-.5 0-1.2-.1-2-.1-.1 0-.2 0-.2.2v.3c0 .2.2.2.3.2 1.1 0 1.1.4 1.1 1.3v4.7c0 .3 0 1-.1 1l-.2-.2-3.3-3.8c-.6-.6-1.1-1.3-1.6-1.9l-1.2-1.5zM107.8 14.5h.7v26.6h-.7zM31.9 19.9H19.3c-.1 0-.1.1-.1.1 0 .1.1.1.1.2.1.1.2 0 .3.1.1.1.2.1.3.2.1.1.2.2.3.4.1.1.2.2.2.4.1.1.1.2.1.4V36h7.1c.1 0 .2-.1.2-.2-.1-.1-.1-.1-.3-.2-.1-.1-.2-.1-.4-.2l-.3-.3c-.1-.1-.2-.2-.2-.3-.1-.1-.1-.2-.1-.4-.1-.2-.1-.3-.1-.5v-5.6h1.8c.3.1.5.1.7.1.2.1.3.1.4.1.2.1.4.1.6.2.2.1.3.1.6.2.2.1.2.2.4.3.2.1.3.1.4.3.2.1.2.2.4.3.1.1.2.2.2.3.1.2.2.2.2.4.1.1.1.2.1.4 0 .1.1.1.2.1s.2-.1.1-.1c-.5-2.5-.5-2.1-1.2-5.2 0-.1-.1-.1-.1-.1H31c-.1.1-.1.3-.1.6-.1.2-.1.3-.2.5s-.2.2-.3.3c-.2.1-.2.2-.4.2-.1.1-.2.1-.3.1h-3.6V21H28c.3 0 .5.1.8.1.3.1.4.1.7.2.2.1.4.1.6.2.2.1.4.2.7.3l.4.4c.1.1.2.2.3.4.2.1.2.2.4.5.1.2.1.4.2.5 0 .1.1.1.2.1 0 0 .1 0 .1-.1 0-1.9 0-2-.5-3.7M40.2 33.9v-5.6H42c.3.1.4.1.7.1.2.1.2.1.4.1.2.1.4.1.6.2.2.1.3.1.6.2.2.1.3.2.5.3.2.1.2.1.4.3l.3.3.3.3.2.4c.1.1.1.2.1.4 0 .1.1.1.2.1s.1-.1.1-.1c-.5-2.5-.5-2.1-1.2-5.2-.1-.1-.1-.1-.2-.1-.1.1-.1.3-.1.5s-.1.3-.1.5c-.1.2-.2.2-.4.3-.1.1-.2.2-.4.2-.1.1-.2.1-.4.1H40v-6.3h2c.3 0 .5.1.8.1.2.1.4.1.7.2.2.1.4.1.6.2.3.1.4.2.7.3.2.1.3.2.4.4.2.1.3.2.4.4.1.1.2.2.4.5.1.2.1.4.2.5 0 .1.1.1.1.1.1 0 .2 0 .2-.1l-.8-3.6H33.1c-.1 0-.1 0-.1.1s.1.1.1.2c.1.1.2 0 .3.1.1.1.2.1.2.2.2.1.2.2.4.4.1.1.1.2.2.4.1.1.1.2.1.4V36h11.4l.8-3.6-.1-.1h-.1c-.1 0-.1.1-.2.2-.1.2-.1.3-.2.5-.2.2-.2.3-.4.5-.2.1-.3.2-.5.4-.3.2-.4.3-.7.4-.3.2-.5.2-.8.3-.4.1-.6.1-.9.2-.2.1-.3.1-.5.1-.8.1-1.9.1-1.9.1v-1.1zM50.3 24.8v9c0 .2 0 .4.1.5.1.2.1.4.3.6l.3.3c.2.2.3.2.5.2.1.1.2.1.2.2s-.1.2-.2.2h-3.4v-14c-.1-.2-.1-.4-.2-.6-.1-.2-.1-.4-.3-.6-.2-.2-.2-.2-.4-.3-.1-.1-.2-.1-.4-.1-.1 0-.1 0-.1-.2 0-.1.1-.1.2-.1h6.5c.2 0 .4 0 .6.1.2.1.3.1.5.2s.2.2.4.3c.1.2.2.3.3.5 1.2 2 1.7 2.9 2.7 4.9l.3.3c.1.1.2.1.4.1s.3.1.5-.1c.2-.1.2-.1.4-.3.1-.2.2-.4.2-.6.3-2 .4-2.5.9-5.3.1-.2.1-.2.2-.2h6.4v13.8c0 .4 0 .6.1.9.1.3.2.3.4.6.1.1.2.2.4.3.1.1.2.1.4.1.1.1.1.1.1.2s-.1.2-.2.2h-7V25l-4.5 11.4h-.1l-6.5-11.6zM79.5 24.5l-.3-4.1c-.1-.1-.2-.1-.4-.2-.4-.2-.6-.2-1-.4s-.7-.2-1.2-.3c-.6-.1-.9-.2-1.5-.2h-1.2c-.5.1-.8.1-1.3.2-.4.1-.6.2-1 .4-.4.1-.6.2-.8.4-.4.2-.6.4-.9.7-.3.3-.4.5-.7.9-.2.3-.2.5-.4.9-.1.4-.2.6-.2 1-.1.4-.1.6 0 1 0 .4.1.6.2 1 .1.3.2.5.3.8.2.3.3.5.6.8.2.3.3.4.6.7.3.3.6.5.9.7.3.2.5.4.9.6.4.2.5.3 1 .5.4.2.7.4 1 .6.2.2.4.2.7.5.2.2.2.3.4.6.1.2.1.3.1.5s0 .4-.1.6c-.1.2-.2.3-.4.4-.2.1-.4.2-.6.2-.3.1-.6.1-.9 0-.3 0-.4-.1-.7-.2-.4-.1-.5-.2-.9-.5-.2-.2-.6-.5-.9-.8-.4-.4-.5-.7-.9-1-.1-.2-.2-.4-.4-.5-.1 0-.2.1-.2.1v4.2c.2.2.3.3.6.5.4.2.6.4 1 .6.4.2.7.2 1.2.4.4.1.7.2 1.1.2.2 0 .4.1.6.1h1.3c.4-.1.6-.1 1-.2.3-.1.4-.1.7-.2.4-.1.6-.2 1-.5.4-.2.6-.4.9-.7.3-.3.5-.6.8-1 .4-.6.6-.9.7-1.5.1-.4.1-.6.1-.9.1-.6.1-.9.1-1.3-.1-.5-.2-.9-.4-1.3-.2-.5-.4-.9-.7-1.3-.4-.5-.6-.7-1-1.1-.4-.4-.6-.5-1.1-.8-.5-.3-.8-.4-1.3-.6-.6-.3-.9-.4-1.3-.7-.3-.2-.5-.3-.7-.6-.2-.2-.3-.3-.4-.6v-.5c.1-.2.2-.4.4-.5.2-.2.5-.2.8-.3.3 0 .5 0 .8.1.4.1.5.1.9.3.4.1.6.2.9.4.3.2.5.4.7.6l1 1c.1.1.1.3.3.3.1 0 .2.1.2 0M85.7 19.4L94 34.7l.1.1c.1.1.2.2.4.3.2.1.2.2.5.3.2.1.3.1.4.1.1 0 .2 0 .2.1s-.1.2-.1.2h-6.6c-.2 0-.2-.1-.4-.1-.2-.1-.4-.1-.6-.2-.2-.2-.4-.3-.6-.5-.2-.2-.2-.4-.4-.6-1.2-2.2-1.3-2.4-2.6-4.8-.1-.2-.2-.2-.4-.4-.2-.1-.3-.1-.5-.2-.2 0-.4 0-.5.1-.2.1-.4.1-.6.2-.2.1-.3.2-.4.4l-.3.6c-.1.1-.1.1-.2.1s-.1-.1-.1-.2c1.5-3.9 1.5-3.8 4.3-10.9h.1z"/></g></svg>