<?xml version="1.0" encoding="utf-8"?>
<!-- Generator: Adobe Illustrator 18.0.0, SVG Export Plug-In . SVG Version: 6.00 Build 0)  -->
<!DOCTYPE svg PUBLIC "-//W3C//DTD SVG 1.1//EN" "http://www.w3.org/Graphics/SVG/1.1/DTD/svg11.dtd">
<svg version="1.1" id="Layer_1" xmlns="http://www.w3.org/2000/svg" xmlns:xlink="http://www.w3.org/1999/xlink" x="0px" y="0px"
	 viewBox="0 0 280 51" enable-background="new 0 0 280 51" xml:space="preserve">
<g>
	<path fill="#231F20" d="M131.8,30.9c0-0.2,0.1-0.3,0.1-0.4c0-0.1-0.5-0.3-0.6-0.3c-0.1,0-0.2,0.3-0.2,0.4c-0.7,1.5-1.5,2-3.2,2
		c-2.7,0-4.3-2.4-4.3-4.9c0-2.5,1.5-4.8,4.2-4.8c1.8,0,2.4,1,3.3,2.5l0.5-0.1c0.1,0,0.1,0,0.1-0.1c0-0.1-0.2-1.3-0.3-1.9
		c0-0.1-0.1-0.2-0.3-0.3c-1-0.5-2.3-0.8-3.4-0.8c-3.1,0-6.3,2.1-6.3,5.4c0,3.8,2.8,5.8,6.4,5.8c1.3,0,2.5-0.3,3.7-0.8L131.8,30.9z"
		/>
	<path fill="#231F20" d="M141.3,27.4c0-2.5,0.9-4.4,3.6-4.4c3,0,4.1,2.9,4.1,5.6c0,2.2-1.3,4.1-3.7,4.1
		C142.7,32.7,141.3,29.7,141.3,27.4 M139.1,28c0,3.3,2.6,5.5,5.7,5.5c3.5,0,6.4-2.2,6.4-5.9c0-3.2-2.8-5.3-6.1-5.3
		C141.8,22.2,139.1,24.6,139.1,28"/>
	<path fill="#231F20" d="M162,24c0-0.8,0.6-0.9,1.3-0.9c0.1,0,0.2-0.1,0.2-0.2v-0.3c0-0.1,0-0.1-0.1-0.1c-0.6,0-1.3,0.1-2,0.1
		c-1.5,0-2.4-0.1-2.6-0.1c-0.1,0-0.2,0.1-0.2,0.1V23c0,0.1,0,0.1,0.2,0.1c0.9,0,1.3,0.4,1.3,1.6v6.4c0,1.3-0.2,1.6-1.3,1.6
		c-0.1,0-0.2,0.1-0.2,0.2v0.3c0,0.1,0.1,0.1,0.1,0.1c1.2,0,3.1-0.1,4.1-0.1c1,0,2.7,0.1,4.1,0.1c0.1-0.5,0.3-1,0.4-1.6
		c0.1-0.3,0.2-0.7,0.2-0.8c0-0.1-0.4-0.2-0.5-0.2c-0.1,0-0.1,0-0.2,0.1c-0.9,1.6-1,1.7-2.9,1.7c-1.5,0-1.7-0.4-1.7-1.3V24z"/>
	<path fill="#231F20" d="M177.9,27.8h1.5c0.6,0,1.1,0,1.2,0.4c0.1,0.3,0.1,0.6,0.1,0.9c0,0.1,0,0.1,0.1,0.1h0.3
		c0.1,0,0.1-0.1,0.1-0.2c0-0.5,0-1,0-1.4c0-0.6,0-1.1,0-1.7c0-0.1,0-0.1-0.2-0.1h-0.3c-0.1,0-0.1,0-0.1,0.1
		c-0.2,1.2-0.7,1.2-1.9,1.2h-1v-2.7c0-1.2,0.2-1.3,1-1.3h1.4c1,0,1.4,0.2,1.5,1.4c0,0.2,0,0.3,0.1,0.3h0.3c0.1,0,0.2-0.1,0.2-0.2
		c0-0.3,0-0.7,0-1c0-0.3,0-0.7,0-1c0-0.1,0-0.2-0.1-0.2c-1.6,0-3.3,0.1-4.9,0.1c-0.8,0-2-0.1-2.6-0.1c-0.2,0-0.3,0-0.3,0.1v0.3
		c0,0.1,0.1,0.1,0.3,0.1c0.5,0,1.1,0,1.1,0.8v1.5v6c0,1-0.4,1.2-0.9,1.2c-0.4,0-0.5,0.1-0.5,0.2v0.3c0,0.1,0.1,0.1,0.1,0.1
		c0.9,0,1.8-0.1,2.7-0.1c1.9,0,3.8,0.1,5.6,0.1c0.2-0.8,0.4-1.3,0.6-1.9c0-0.1,0-0.2,0-0.2c0-0.2-0.4-0.2-0.6-0.2
		c-0.1,0-0.1,0-0.3,0.2l-0.5,0.7c-0.3,0.5-0.4,0.8-1.1,0.8h-2.1c-1,0-1.2-0.4-1.2-1.2V27.8z"/>
	<path fill="#231F20" d="M201.2,30.9c0-0.2,0.1-0.3,0.1-0.4c0-0.1-0.5-0.3-0.6-0.3c-0.1,0-0.2,0.3-0.2,0.4c-0.7,1.5-1.5,2-3.2,2
		c-2.7,0-4.3-2.4-4.3-4.9c0-2.5,1.5-4.8,4.2-4.8c1.8,0,2.4,1,3.3,2.5l0.5-0.1c0.1,0,0.1,0,0.1-0.1c0-0.1-0.2-1.3-0.3-1.9
		c0-0.1-0.1-0.2-0.3-0.3c-1-0.5-2.3-0.8-3.4-0.8c-3.1,0-6.3,2.1-6.3,5.4c0,3.8,2.8,5.8,6.4,5.8c1.3,0,2.5-0.3,3.7-0.8L201.2,30.9z"
		/>
	<path fill="#231F20" d="M219,30.9c0-0.2,0.1-0.3,0.1-0.4c0-0.1-0.5-0.3-0.6-0.3c-0.1,0-0.2,0.3-0.2,0.4c-0.7,1.5-1.5,2-3.2,2
		c-2.7,0-4.3-2.4-4.3-4.9c0-2.5,1.5-4.8,4.2-4.8c1.8,0,2.4,1,3.3,2.5l0.5-0.1c0.1,0,0.1,0,0.1-0.1c0-0.1-0.2-1.3-0.3-1.9
		c0-0.1-0.1-0.2-0.3-0.3c-1-0.5-2.3-0.8-3.4-0.8c-3.1,0-6.3,2.1-6.3,5.4c0,3.8,2.8,5.8,6.4,5.8c1.3,0,2.5-0.3,3.7-0.8L219,30.9z"/>
	<path fill="#231F20" d="M227.5,31.6c0,0.8-0.5,1-1.2,1c-0.2,0-0.2,0-0.2,0.1v0.4c0,0.1,0.1,0.1,0.1,0.1c0.8,0,1.6-0.1,2.4-0.1
		c0.7,0,1.4,0.1,2.1,0.1c0.1,0,0.2,0,0.2-0.2v-0.3c0-0.1,0-0.1-0.2-0.1c-0.8,0-1.3-0.1-1.3-1V24c0-0.7,0.4-0.9,1.1-0.9
		c0.2,0,0.3,0,0.3-0.1v-0.4c0-0.1-0.1-0.1-0.2-0.1c-0.4,0-1.3,0.1-2.3,0.1c-1.1,0-1.9-0.1-2.1-0.1c-0.1,0-0.1,0.1-0.1,0.1V23
		c0,0.1,0.1,0.1,0.2,0.1c0.7,0,1.1,0.1,1.1,0.9V31.6z"/>
	<path fill="#231F20" d="M240.3,27.4c0-2.5,0.9-4.4,3.6-4.4c3,0,4.1,2.9,4.1,5.6c0,2.2-1.3,4.1-3.7,4.1
		C241.7,32.7,240.3,29.7,240.3,27.4 M238.1,28c0,3.3,2.6,5.5,5.7,5.5c3.5,0,6.4-2.2,6.4-5.9c0-3.2-2.8-5.3-6.1-5.3
		C240.9,22.2,238.1,24.6,238.1,28 M243,21.7h0.8l2.4-1.5c0.2-0.1,0.4-0.3,0.4-0.5c0-0.5-0.3-0.7-0.8-0.7c-0.3,0-0.5,0.2-0.7,0.4
		L243,21.7z"/>
	<path fill="#231F20" d="M261.3,22.8c-0.1-0.1-0.2-0.3-0.4-0.3c-0.7,0-1.3,0.1-1.9,0.1c-0.5,0-1-0.1-1.6-0.1c-0.1,0-0.2,0.1-0.2,0.1
		V23c0,0.1,0.1,0.1,0.2,0.1c1.5,0,1.7,0.1,1.7,2.6V31c0,1.5-0.5,1.6-1.4,1.6c-0.1,0-0.2,0.1-0.2,0.2V33c0,0.1,0.1,0.2,0.3,0.2
		c0.7,0,1.4-0.1,2-0.1c0.6,0,0.8,0.1,1.5,0.1c0.2,0,0.2,0,0.2-0.1v-0.3c0-0.1-0.1-0.1-0.3-0.1c-0.9,0-1.2-0.1-1.2-1.7v-5.5
		c0-0.1,0-0.7,0.1-0.7c0.1,0,0.2,0.2,0.4,0.4l6.2,7.1c0.2,0.3,0.5,0.5,0.9,1c0.2,0.2,0.3,0.2,0.8,0.2c0.1,0,0.2,0,0.2-0.1
		c0-0.5,0-1.4,0-2.6V25c0-1.5,0.2-1.8,1-1.9c0.4,0,0.5,0,0.5-0.2v-0.3c0-0.1-0.1-0.1-0.2-0.1c-0.4,0-0.8,0.1-1.4,0.1
		c-0.5,0-1.2-0.1-2-0.1c-0.1,0-0.2,0-0.2,0.2v0.3c0,0.2,0.2,0.2,0.3,0.2c1.1,0,1.1,0.4,1.1,1.3v4.7c0,0.3,0,1-0.1,1
		c0,0-0.1-0.1-0.2-0.2l-3.3-3.8c-0.6-0.6-1.1-1.3-1.6-1.9L261.3,22.8z"/>
	<rect x="107.8" y="14.5" fill="#231F20" width="0.7" height="26.6"/>
	<path fill="#231F20" d="M31.9,19.9H19.3c-0.1,0-0.1,0.1-0.1,0.1c0,0.1,0.1,0.1,0.1,0.2c0.1,0.1,0.2,0,0.3,0.1
		c0.1,0.1,0.2,0.1,0.3,0.2c0.1,0.1,0.2,0.2,0.3,0.4c0.1,0.1,0.2,0.2,0.2,0.4c0.1,0.1,0.1,0.2,0.1,0.4v0.2v14.1h7.1
		c0.1,0,0.2-0.1,0.2-0.2c-0.1-0.1-0.1-0.1-0.3-0.2c-0.1-0.1-0.2-0.1-0.4-0.2c-0.1-0.1-0.2-0.2-0.3-0.3c-0.1-0.1-0.2-0.2-0.2-0.3
		c-0.1-0.1-0.1-0.2-0.1-0.4c-0.1-0.2-0.1-0.3-0.1-0.5v-5.6h1.8c0.3,0.1,0.5,0.1,0.7,0.1c0.2,0.1,0.3,0.1,0.4,0.1
		c0.2,0.1,0.4,0.1,0.6,0.2c0.2,0.1,0.3,0.1,0.6,0.2c0.2,0.1,0.2,0.2,0.4,0.3c0.2,0.1,0.3,0.1,0.4,0.3c0.2,0.1,0.2,0.2,0.4,0.3
		c0.1,0.1,0.2,0.2,0.2,0.3c0.1,0.2,0.2,0.2,0.2,0.4c0.1,0.1,0.1,0.2,0.1,0.4c0,0.1,0.1,0.1,0.2,0.1c0.1,0,0.2-0.1,0.1-0.1
		c-0.5-2.5-0.5-2.1-1.2-5.2c0-0.1-0.1-0.1-0.1-0.1h-0.2c-0.1,0.1-0.1,0.3-0.1,0.6c-0.1,0.2-0.1,0.3-0.2,0.5
		c-0.1,0.2-0.2,0.2-0.3,0.3c-0.2,0.1-0.2,0.2-0.4,0.2c-0.1,0.1-0.2,0.1-0.3,0.1h-3.6v-6.3h1.9c0.3,0,0.5,0.1,0.8,0.1
		c0.3,0.1,0.4,0.1,0.7,0.2c0.2,0.1,0.4,0.1,0.6,0.2c0.2,0.1,0.4,0.2,0.7,0.3c0.1,0.1,0.2,0.2,0.4,0.4c0.1,0.1,0.2,0.2,0.3,0.4
		c0.2,0.1,0.2,0.2,0.4,0.5c0.1,0.2,0.1,0.4,0.2,0.5c0,0.1,0.1,0.1,0.2,0.1c0,0,0.1,0,0.1-0.1C32.4,21.7,32.4,21.6,31.9,19.9"/>
	<path fill="#231F20" d="M40.2,33.9v-5.6H42c0.3,0.1,0.4,0.1,0.7,0.1c0.2,0.1,0.2,0.1,0.4,0.1c0.2,0.1,0.4,0.1,0.6,0.2
		c0.2,0.1,0.3,0.1,0.6,0.2c0.2,0.1,0.3,0.2,0.5,0.3c0.2,0.1,0.2,0.1,0.4,0.3c0.1,0.1,0.2,0.2,0.3,0.3c0.1,0.1,0.2,0.2,0.3,0.3
		c0.1,0.2,0.1,0.2,0.2,0.4c0.1,0.1,0.1,0.2,0.1,0.4c0,0.1,0.1,0.1,0.2,0.1c0.1,0,0.1-0.1,0.1-0.1c-0.5-2.5-0.5-2.1-1.2-5.2
		c-0.1-0.1-0.1-0.1-0.2-0.1H45c-0.1,0.1-0.1,0.3-0.1,0.5c0,0.2-0.1,0.3-0.1,0.5c-0.1,0.2-0.2,0.2-0.4,0.3c-0.1,0.1-0.2,0.2-0.4,0.2
		c-0.1,0.1-0.2,0.1-0.4,0.1h-3.6v-6.3h2c0.3,0,0.5,0.1,0.8,0.1c0.2,0.1,0.4,0.1,0.7,0.2c0.2,0.1,0.4,0.1,0.6,0.2
		c0.3,0.1,0.4,0.2,0.7,0.3c0.2,0.1,0.3,0.2,0.4,0.4c0.2,0.1,0.3,0.2,0.4,0.4c0.1,0.1,0.2,0.2,0.4,0.5c0.1,0.2,0.1,0.4,0.2,0.5
		c0,0.1,0.1,0.1,0.1,0.1c0.1,0,0.2,0,0.2-0.1c-0.4-1.8-0.4-1.8-0.8-3.6H33.1C33,19.9,33,19.9,33,20c0,0.1,0.1,0.1,0.1,0.2
		c0.1,0.1,0.2,0,0.3,0.1c0.1,0.1,0.2,0.1,0.2,0.2c0.2,0.1,0.2,0.2,0.4,0.4c0.1,0.1,0.1,0.2,0.2,0.4c0.1,0.1,0.1,0.2,0.1,0.4v0.2
		v14.1h11.4l0.8-3.6l-0.1-0.1h-0.1c-0.1,0-0.1,0.1-0.2,0.2C46,32.7,46,32.8,45.9,33c-0.2,0.2-0.2,0.3-0.4,0.5
		c-0.2,0.1-0.3,0.2-0.5,0.4c-0.3,0.2-0.4,0.3-0.7,0.4c-0.3,0.2-0.5,0.2-0.8,0.3c-0.4,0.1-0.6,0.1-0.9,0.2c-0.2,0.1-0.3,0.1-0.5,0.1
		c-0.8,0.1-1.9,0.1-1.9,0.1V33.9z"/>
	<path fill="#231F20" d="M50.3,24.8v9c0,0.2,0,0.4,0.1,0.5c0.1,0.2,0.1,0.4,0.3,0.6c0.1,0.1,0.2,0.2,0.3,0.3
		c0.2,0.2,0.3,0.2,0.5,0.2c0.1,0.1,0.2,0.1,0.2,0.2c0,0.1-0.1,0.2-0.2,0.2h-3.4V21.8c-0.1-0.2-0.1-0.4-0.2-0.6
		c-0.1-0.2-0.1-0.4-0.3-0.6c-0.2-0.2-0.2-0.2-0.4-0.3c-0.1-0.1-0.2-0.1-0.4-0.1c-0.1,0-0.1,0-0.1-0.2c0-0.1,0.1-0.1,0.2-0.1h6.5
		c0.2,0,0.4,0,0.6,0.1c0.2,0.1,0.3,0.1,0.5,0.2c0.2,0.1,0.2,0.2,0.4,0.3c0.1,0.2,0.2,0.3,0.3,0.5c1.2,2,1.7,2.9,2.7,4.9
		c0.1,0.1,0.2,0.2,0.3,0.3c0.1,0.1,0.2,0.1,0.4,0.1c0.2,0,0.3,0.1,0.5-0.1c0.2-0.1,0.2-0.1,0.4-0.3c0.1-0.2,0.2-0.4,0.2-0.6
		c0.3-2,0.4-2.5,0.9-5.3c0.1-0.2,0.1-0.2,0.2-0.2h6.4v13.8c0,0.4,0,0.6,0.1,0.9c0.1,0.3,0.2,0.3,0.4,0.6c0.1,0.1,0.2,0.2,0.4,0.3
		c0.1,0.1,0.2,0.1,0.4,0.1c0.1,0.1,0.1,0.1,0.1,0.2c0,0.1-0.1,0.2-0.2,0.2h-7V25l-4.5,11.4h-0.1L50.3,24.8z"/>
	<path fill="#231F20" d="M79.5,24.5l-0.3-4.1c-0.1-0.1-0.2-0.1-0.4-0.2c-0.4-0.2-0.6-0.2-1-0.4c-0.4-0.2-0.7-0.2-1.2-0.3
		c-0.6-0.1-0.9-0.2-1.5-0.2h-1.2c-0.5,0.1-0.8,0.1-1.3,0.2c-0.4,0.1-0.6,0.2-1,0.4c-0.4,0.1-0.6,0.2-0.8,0.4
		c-0.4,0.2-0.6,0.4-0.9,0.7c-0.3,0.3-0.4,0.5-0.7,0.9c-0.2,0.3-0.2,0.5-0.4,0.9c-0.1,0.4-0.2,0.6-0.2,1c-0.1,0.4-0.1,0.6,0,1
		c0,0.4,0.1,0.6,0.2,1c0.1,0.3,0.2,0.5,0.3,0.8c0.2,0.3,0.3,0.5,0.6,0.8c0.2,0.3,0.3,0.4,0.6,0.7c0.3,0.3,0.6,0.5,0.9,0.7
		c0.3,0.2,0.5,0.4,0.9,0.6c0.4,0.2,0.5,0.3,1,0.5c0.4,0.2,0.7,0.4,1,0.6c0.2,0.2,0.4,0.2,0.7,0.5c0.2,0.2,0.2,0.3,0.4,0.6
		c0.1,0.2,0.1,0.3,0.1,0.5c0,0.2,0,0.4-0.1,0.6c-0.1,0.2-0.2,0.3-0.4,0.4c-0.2,0.1-0.4,0.2-0.6,0.2c-0.3,0.1-0.6,0.1-0.9,0
		c-0.3,0-0.4-0.1-0.7-0.2c-0.4-0.1-0.5-0.2-0.9-0.5c-0.2-0.2-0.6-0.5-0.9-0.8c-0.4-0.4-0.5-0.7-0.9-1c-0.1-0.2-0.2-0.4-0.4-0.5
		c-0.1,0-0.2,0.1-0.2,0.1v4.2c0.2,0.2,0.3,0.3,0.6,0.5c0.4,0.2,0.6,0.4,1,0.6c0.4,0.2,0.7,0.2,1.2,0.4c0.4,0.1,0.7,0.2,1.1,0.2
		c0.2,0,0.4,0.1,0.6,0.1c0,0,0,0,0,0h0h0h0h0h0c0,0,0,0,0,0h0h0h0h0h0h0h0h0h1.3c0.4-0.1,0.6-0.1,1-0.2c0.3-0.1,0.4-0.1,0.7-0.2
		c0.4-0.1,0.6-0.2,1-0.5c0.4-0.2,0.6-0.4,0.9-0.7c0.3-0.3,0.5-0.6,0.8-1c0.4-0.6,0.6-0.9,0.7-1.5c0.1-0.4,0.1-0.6,0.1-0.9
		c0.1-0.6,0.1-0.9,0.1-1.3c-0.1-0.5-0.2-0.9-0.4-1.3c-0.2-0.5-0.4-0.9-0.7-1.3c-0.4-0.5-0.6-0.7-1-1.1c-0.4-0.4-0.6-0.5-1.1-0.8
		c-0.5-0.3-0.8-0.4-1.3-0.6c-0.6-0.3-0.9-0.4-1.3-0.7c-0.3-0.2-0.5-0.3-0.7-0.6c-0.2-0.2-0.3-0.3-0.4-0.6v-0.5
		c0.1-0.2,0.2-0.4,0.4-0.5c0.2-0.2,0.5-0.2,0.8-0.3c0.3,0,0.5,0,0.8,0.1c0.4,0.1,0.5,0.1,0.9,0.3c0.4,0.1,0.6,0.2,0.9,0.4
		c0.3,0.2,0.5,0.4,0.7,0.6c0.4,0.4,0.6,0.6,1,1c0.1,0.1,0.1,0.3,0.3,0.3C79.4,24.5,79.5,24.6,79.5,24.5"/>
	<path fill="#231F20" d="M85.7,19.4L94,34.7l0.1,0.1c0.1,0.1,0.2,0.2,0.4,0.3c0.2,0.1,0.2,0.2,0.5,0.3c0.2,0.1,0.3,0.1,0.4,0.1
		c0.1,0,0.2,0,0.2,0.1c0,0.1-0.1,0.2-0.1,0.2h-6.6c-0.2,0-0.2-0.1-0.4-0.1c-0.2-0.1-0.4-0.1-0.6-0.2c-0.2-0.2-0.4-0.3-0.6-0.5
		c-0.2-0.2-0.2-0.4-0.4-0.6c-1.2-2.2-1.3-2.4-2.6-4.8c-0.1-0.2-0.2-0.2-0.4-0.4c-0.2-0.1-0.3-0.1-0.5-0.2c-0.2,0-0.4,0-0.5,0.1
		c-0.2,0.1-0.4,0.1-0.6,0.2c-0.2,0.1-0.3,0.2-0.4,0.4c-0.1,0.2-0.2,0.4-0.3,0.6c-0.1,0.1-0.1,0.1-0.2,0.1c-0.1,0-0.1-0.1-0.1-0.2
		c1.5-3.9,1.5-3.8,4.3-10.9H85.7z"/>
</g>
</svg>
