<!DOCTYPE svg PUBLIC "-//W3C//DTD SVG 1.1//EN" "http://www.w3.org/Graphics/SVG/1.1/DTD/svg11.dtd">
<svg version="1.1" xmlns="http://www.w3.org/2000/svg" xmlns:xlink="http://www.w3.org/1999/xlink" x="0px" y="0px"
	 width="196.356px" height="68.793px" viewBox="0 0 196.356 68.793" enable-background="new 0 0 196.356 68.793"
	 xml:space="preserve">
<path d="M89.81,10.622c0.031-0.108,0.051-0.209,0.051-0.236c0-0.089-0.307-0.169-0.387-0.169c-0.078,0-0.129,0.196-0.157,0.257
	c-0.476,0.987-0.946,1.323-2.075,1.323c-1.729,0-2.804-1.59-2.804-3.201c0-1.622,0.956-3.101,2.706-3.101
	c1.174,0,1.589,0.68,2.125,1.6l0.306-0.08c0.048-0.01,0.059-0.027,0.059-0.059c0-0.068-0.109-0.85-0.168-1.266
	c-0.011-0.05-0.09-0.107-0.197-0.166C88.625,5.168,87.795,5,87.074,5c-1.994,0-4.118,1.344-4.118,3.518
	c0,2.47,1.844,3.773,4.176,3.773c0.84,0,1.612-0.166,2.383-0.503L89.81,10.622z"/>
<path d="M95.999,8.329c0-1.602,0.571-2.834,2.35-2.834c1.968,0,2.689,1.894,2.689,3.605c0,1.453-0.83,2.697-2.393,2.697
	C96.899,11.798,95.999,9.84,95.999,8.329 M94.566,8.743c0,2.164,1.709,3.548,3.725,3.548c2.292,0,4.18-1.442,4.18-3.814
	c0-2.094-1.83-3.477-3.982-3.477C96.334,5,94.566,6.511,94.566,8.743"/>
<path d="M109.468,6.165c0-0.512,0.363-0.611,0.829-0.611c0.089,0,0.101-0.059,0.101-0.109V5.235c0-0.047-0.021-0.078-0.072-0.078
	c-0.424,0-0.857,0.051-1.293,0.051c-0.959,0-1.531-0.051-1.689-0.051c-0.088,0-0.119,0.039-0.119,0.1v0.207
	c0,0.06,0.031,0.09,0.1,0.09c0.615,0,0.83,0.258,0.83,1.027v4.149c0,0.831-0.146,1.009-0.82,1.009c-0.078,0-0.109,0.039-0.109,0.108
	v0.216c0,0.051,0.043,0.069,0.08,0.069c0.76,0,2.006-0.05,2.657-0.05c0.644,0,1.748,0.05,2.64,0.05
	c0.078-0.315,0.178-0.652,0.264-1.009c0.051-0.197,0.102-0.442,0.102-0.491c0-0.069-0.277-0.119-0.348-0.119
	c-0.049,0-0.088,0.028-0.129,0.097c-0.571,1.027-0.668,1.078-1.885,1.078c-1,0-1.137-0.248-1.137-0.859V6.165z"/>
<path d="M119.776,8.624h0.949c0.414,0,0.701-0.008,0.81,0.27c0.079,0.207,0.079,0.413,0.079,0.572c0,0.057,0.029,0.079,0.089,0.079
	h0.228c0.049,0,0.08-0.062,0.08-0.148c0-0.306-0.01-0.624-0.01-0.889c0-0.366,0.01-0.731,0.01-1.101c0-0.037-0.022-0.065-0.11-0.065
	h-0.168c-0.05,0-0.067,0.017-0.08,0.065c-0.146,0.812-0.474,0.774-1.204,0.774h-0.672V6.452c0-0.799,0.119-0.852,0.652-0.852h0.938
	c0.651,0,0.909,0.12,0.968,0.88c0.01,0.15,0.02,0.198,0.069,0.198h0.198c0.078,0,0.129-0.038,0.129-0.109
	c0-0.207-0.01-0.424-0.01-0.631c0-0.218,0.01-0.443,0.01-0.662c0-0.048,0-0.119-0.09-0.119c-1.057,0-2.125,0.051-3.18,0.051
	c-0.504-0.012-1.285-0.051-1.682-0.051c-0.098,0-0.188,0-0.188,0.1v0.197c0,0.099,0.068,0.099,0.168,0.099
	c0.308,0,0.701,0,0.701,0.515v0.978v3.922c0,0.651-0.285,0.751-0.572,0.772c-0.276,0.019-0.336,0.039-0.336,0.137v0.178
	c0,0.061,0.049,0.08,0.078,0.08c0.592,0,1.176-0.051,1.771-0.051c1.214,0,2.44,0.051,3.655,0.051
	c0.156-0.493,0.285-0.868,0.404-1.256c0.02-0.049,0.028-0.098,0.028-0.147c0-0.108-0.284-0.149-0.364-0.149
	c-0.051,0-0.09,0.022-0.18,0.149l-0.305,0.464c-0.207,0.317-0.287,0.494-0.729,0.494h-1.354c-0.662,0-0.781-0.248-0.781-0.791V8.624
	z"/>
<path d="M134.927,10.622c0.029-0.108,0.05-0.209,0.05-0.236c0-0.089-0.308-0.169-0.386-0.169s-0.129,0.196-0.157,0.257
	c-0.476,0.987-0.95,1.323-2.075,1.323c-1.729,0-2.807-1.59-2.807-3.201c0-1.622,0.959-3.101,2.708-3.101
	c1.176,0,1.59,0.68,2.125,1.6l0.306-0.08c0.049-0.01,0.057-0.027,0.057-0.059c0-0.068-0.106-0.85-0.166-1.266
	c-0.01-0.05-0.09-0.107-0.196-0.166C133.741,5.168,132.911,5,132.19,5c-1.996,0-4.121,1.344-4.121,3.518
	c0,2.47,1.85,3.773,4.18,3.773c0.84,0,1.611-0.166,2.381-0.503L134.927,10.622z"/>
<path d="M146.478,10.622c0.029-0.108,0.051-0.209,0.051-0.236c0-0.089-0.307-0.169-0.384-0.169c-0.079,0-0.13,0.196-0.159,0.257
	c-0.475,0.987-0.947,1.323-2.076,1.323c-1.729,0-2.805-1.59-2.805-3.201c0-1.622,0.959-3.101,2.706-3.101
	c1.177,0,1.591,0.68,2.125,1.6l0.306-0.08c0.049-0.01,0.06-0.027,0.06-0.059c0-0.068-0.108-0.85-0.169-1.266
	c-0.008-0.05-0.088-0.107-0.196-0.166C145.294,5.168,144.462,5,143.743,5c-1.998,0-4.119,1.344-4.119,3.518
	c0,2.47,1.846,3.773,4.179,3.773c0.838,0,1.608-0.166,2.38-0.503L146.478,10.622z"/>
<path d="M152.034,11.114c0,0.535-0.297,0.625-0.762,0.625c-0.098,0-0.135,0.029-0.135,0.078v0.256c0,0.041,0.037,0.06,0.066,0.06
	c0.514,0,1.039-0.05,1.551-0.05c0.467,0,0.93,0.05,1.393,0.05c0.078,0,0.131-0.019,0.131-0.108v-0.199
	c0-0.057-0.029-0.086-0.109-0.086c-0.494,0-0.82-0.07-0.82-0.625V6.146c0-0.443,0.256-0.594,0.711-0.594
	c0.109,0,0.197-0.008,0.197-0.057V5.216c0-0.048-0.049-0.059-0.129-0.059c-0.244,0-0.83,0.051-1.5,0.051
	c-0.683,0-1.256-0.051-1.395-0.051c-0.068,0-0.078,0.039-0.078,0.1v0.227c0,0.049,0.068,0.068,0.15,0.068
	c0.471,0,0.729,0.061,0.729,0.594V11.114z"/>
<path d="M160.376,8.33c0-1.603,0.571-2.836,2.35-2.836c1.968,0,2.689,1.896,2.689,3.606c0,1.453-0.83,2.697-2.392,2.697
	C161.273,11.798,160.376,9.839,160.376,8.33 M158.942,8.744c0,2.163,1.708,3.548,3.725,3.548c2.291,0,4.178-1.445,4.178-3.814
	c0-2.096-1.828-3.478-3.979-3.478C160.712,5,158.942,6.511,158.942,8.744 M162.115,4.646h0.503l1.592-0.99
	c0.147-0.089,0.236-0.216,0.236-0.346c0-0.295-0.219-0.435-0.494-0.435c-0.181,0-0.326,0.12-0.425,0.237L162.115,4.646z"/>
<path d="M174.022,5.386c-0.059-0.069-0.119-0.229-0.246-0.229c-0.436,0-0.82,0.051-1.256,0.051c-0.338,0-0.672-0.051-1.027-0.051
	c-0.078,0-0.109,0.051-0.109,0.1v0.207c0,0.049,0.041,0.088,0.102,0.088c0.994,0,1.125,0.09,1.125,1.699v3.459
	c0,0.987-0.338,1.029-0.918,1.029c-0.072,0-0.102,0.049-0.102,0.108v0.165c0,0.08,0.039,0.119,0.179,0.119
	c0.466,0,0.931-0.049,1.306-0.049c0.365,0,0.531,0.049,0.947,0.049c0.107,0,0.148-0.021,0.148-0.088v-0.219
	c0-0.086-0.08-0.086-0.18-0.086c-0.602,0-0.789-0.061-0.789-1.109V7.054c0-0.06-0.018-0.444,0.049-0.444
	c0.06,0,0.139,0.11,0.269,0.258l3.999,4.644c0.16,0.179,0.309,0.354,0.594,0.65c0.148,0.121,0.188,0.129,0.543,0.129
	c0.088,0,0.098-0.019,0.098-0.078c0-0.314-0.01-0.91-0.01-1.658V6.769c-0.018-1,0.131-1.197,0.625-1.217
	c0.268,0,0.346-0.027,0.346-0.099V5.257c0-0.09-0.049-0.1-0.121-0.1c-0.264,0-0.52,0.051-0.938,0.051
	c-0.324,0-0.779-0.051-1.285-0.051c-0.088,0-0.146,0.02-0.146,0.108v0.17c0,0.097,0.1,0.116,0.188,0.116
	c0.692,0,0.74,0.229,0.74,0.859v3.045c0,0.228-0.018,0.682-0.048,0.682s-0.069-0.049-0.129-0.131l-2.125-2.459
	c-0.364-0.414-0.71-0.828-1.056-1.244L174.022,5.386z"/>
<rect x="74.208" width="0.433" height="17.265"/>
<path d="M24.916,3.458H16.72c-0.041,0-0.08,0.039-0.08,0.078c0,0.043,0.039,0.08,0.08,0.121c0.078,0.039,0.119,0,0.197,0.039
	c0.08,0.041,0.12,0.08,0.201,0.119c0.079,0.081,0.116,0.121,0.199,0.238c0.078,0.08,0.118,0.161,0.118,0.281
	c0.039,0.078,0.039,0.117,0.08,0.234v0.163v9.154h4.617c0.078,0,0.121-0.039,0.121-0.119c-0.043-0.079-0.08-0.079-0.162-0.121
	c-0.076-0.041-0.158-0.041-0.279-0.12c-0.078-0.078-0.12-0.117-0.198-0.197c-0.079-0.08-0.119-0.121-0.158-0.201
	c-0.041-0.077-0.08-0.157-0.08-0.236c-0.041-0.121-0.041-0.199-0.041-0.322V8.948h1.155c0.201,0.041,0.32,0.041,0.478,0.041
	c0.119,0.041,0.199,0.041,0.279,0.082c0.157,0.037,0.276,0.037,0.399,0.117c0.16,0.041,0.199,0.082,0.396,0.121
	c0.16,0.078,0.16,0.118,0.278,0.199c0.12,0.039,0.199,0.077,0.281,0.199c0.117,0.039,0.158,0.115,0.238,0.197
	c0.077,0.08,0.119,0.121,0.16,0.199c0.079,0.12,0.118,0.159,0.157,0.278c0.042,0.08,0.042,0.159,0.079,0.239
	c0,0.039,0.039,0.08,0.12,0.08c0.041,0,0.121-0.041,0.08-0.08c-0.357-1.633-0.318-1.393-0.754-3.383c0-0.039-0.041-0.08-0.08-0.08
	h-0.12C24.398,7.2,24.44,7.356,24.44,7.518c-0.042,0.12-0.042,0.201-0.12,0.32c-0.077,0.118-0.118,0.157-0.197,0.198
	c-0.122,0.08-0.161,0.117-0.278,0.156c-0.082,0.043-0.121,0.043-0.199,0.043h-2.311V4.134h1.234c0.201,0,0.319,0.04,0.518,0.081
	c0.197,0.039,0.279,0.039,0.477,0.12c0.16,0.039,0.242,0.078,0.398,0.158c0.161,0.076,0.281,0.119,0.436,0.197
	c0.083,0.082,0.158,0.123,0.283,0.241c0.078,0.078,0.117,0.119,0.197,0.235c0.121,0.08,0.158,0.162,0.239,0.32
	c0.039,0.119,0.081,0.238,0.118,0.319c0,0.04,0.081,0.04,0.12,0.04c0,0,0.08,0,0.08-0.04C25.198,4.649,25.198,4.612,24.916,3.458"/>
<path d="M30.29,12.569v-3.62h1.155c0.201,0.041,0.279,0.041,0.478,0.041c0.118,0.041,0.16,0.041,0.278,0.079
	c0.158,0.039,0.24,0.039,0.4,0.119c0.158,0.041,0.197,0.08,0.357,0.121c0.159,0.078,0.197,0.117,0.317,0.199
	c0.12,0.039,0.16,0.077,0.279,0.199c0.08,0.038,0.119,0.118,0.199,0.198c0.079,0.079,0.12,0.12,0.199,0.2
	c0.039,0.119,0.08,0.156,0.12,0.275c0.039,0.081,0.079,0.161,0.079,0.238c0,0.044,0.039,0.082,0.159,0.082
	c0.041,0,0.08-0.038,0.08-0.082c-0.358-1.63-0.318-1.391-0.756-3.38c-0.043-0.04-0.043-0.08-0.119-0.08h-0.08
	c-0.08,0.04-0.04,0.198-0.08,0.356c0,0.12-0.039,0.201-0.08,0.32c-0.079,0.118-0.12,0.159-0.238,0.199
	c-0.079,0.079-0.157,0.117-0.239,0.156c-0.078,0.043-0.162,0.043-0.24,0.043h-2.307V4.134h1.273c0.2,0,0.319,0.039,0.517,0.082
	c0.16,0.039,0.278,0.039,0.438,0.119c0.157,0.039,0.241,0.079,0.401,0.158c0.196,0.076,0.275,0.119,0.436,0.197
	c0.119,0.082,0.199,0.123,0.275,0.24c0.123,0.078,0.162,0.12,0.241,0.237c0.08,0.08,0.159,0.161,0.24,0.319
	c0.039,0.119,0.079,0.238,0.118,0.318c0,0.041,0.039,0.041,0.081,0.041c0.039,0,0.119,0,0.119-0.041
	c-0.239-1.156-0.239-1.193-0.517-2.347h-8.2c-0.037,0-0.076,0.038-0.076,0.077c0,0.043,0.039,0.081,0.076,0.121
	c0.043,0.039,0.123,0,0.199,0.039c0.081,0.041,0.122,0.08,0.161,0.119c0.118,0.08,0.156,0.119,0.238,0.237
	c0.08,0.081,0.08,0.163,0.119,0.282c0.041,0.079,0.041,0.116,0.08,0.234v0.164v9.152h7.403l0.517-2.347l-0.039-0.08h-0.08
	c-0.081,0-0.081,0.08-0.12,0.158c-0.079,0.2-0.079,0.239-0.16,0.358c-0.118,0.158-0.159,0.197-0.238,0.317
	c-0.119,0.078-0.199,0.16-0.318,0.24c-0.2,0.118-0.28,0.198-0.477,0.276c-0.199,0.121-0.322,0.16-0.517,0.199
	c-0.24,0.082-0.358,0.082-0.598,0.119c-0.119,0.042-0.197,0.042-0.319,0.042c-0.515,0.039-1.234,0.039-1.234,0.039V12.569z"/>
<path d="M36.86,6.684v5.85c0,0.118,0,0.236,0.037,0.358c0.041,0.158,0.08,0.238,0.197,0.398c0.043,0.079,0.123,0.158,0.203,0.198
	c0.12,0.119,0.196,0.119,0.356,0.159c0.08,0.042,0.119,0.079,0.119,0.118c0,0.082-0.039,0.12-0.119,0.12h-2.228V4.732
	c-0.04-0.162-0.04-0.281-0.12-0.399c-0.039-0.16-0.079-0.279-0.2-0.397c-0.118-0.118-0.159-0.159-0.278-0.198
	c-0.08-0.041-0.156-0.08-0.238-0.08c-0.08,0-0.08,0-0.08-0.122c0-0.039,0.041-0.077,0.121-0.077h4.215c0.16,0,0.281,0,0.4,0.077
	c0.121,0.043,0.197,0.043,0.32,0.122c0.119,0.08,0.157,0.119,0.276,0.198c0.082,0.121,0.123,0.198,0.199,0.317
	c0.758,1.314,1.076,1.912,1.752,3.185c0.039,0.081,0.119,0.121,0.201,0.201c0.076,0.036,0.156,0.079,0.276,0.079
	c0.122,0,0.197,0.041,0.32-0.043c0.119-0.036,0.158-0.077,0.238-0.196c0.08-0.158,0.119-0.239,0.119-0.399
	c0.199-1.312,0.278-1.631,0.559-3.421c0.041-0.12,0.078-0.12,0.119-0.12h4.136v8.952c0,0.241,0,0.359,0.082,0.597
	c0.079,0.162,0.118,0.201,0.241,0.402c0.078,0.079,0.158,0.118,0.275,0.198c0.082,0.04,0.159,0.04,0.24,0.04
	c0.039,0.042,0.079,0.079,0.079,0.118c0,0.082-0.079,0.12-0.119,0.12h-4.577V6.761l-2.929,7.406h-0.038L36.86,6.684z"/>
<path d="M55.843,6.481l-0.199-2.664c-0.08-0.041-0.119-0.08-0.238-0.121c-0.242-0.117-0.398-0.16-0.678-0.238
	c-0.278-0.12-0.479-0.161-0.795-0.199c-0.36-0.08-0.597-0.119-0.955-0.16h-0.801c-0.313,0.041-0.515,0.041-0.834,0.119
	c-0.236,0.079-0.396,0.12-0.635,0.24c-0.24,0.078-0.357,0.159-0.515,0.279c-0.242,0.158-0.401,0.238-0.598,0.477
	c-0.197,0.2-0.281,0.319-0.439,0.559c-0.12,0.197-0.16,0.315-0.24,0.557c-0.079,0.238-0.118,0.357-0.118,0.635
	c-0.042,0.241-0.042,0.399,0,0.678c0,0.242,0.039,0.399,0.118,0.677c0.08,0.198,0.12,0.319,0.199,0.517
	c0.123,0.201,0.199,0.319,0.361,0.518c0.119,0.199,0.195,0.278,0.358,0.479c0.197,0.199,0.359,0.315,0.597,0.478
	c0.198,0.158,0.316,0.237,0.555,0.357c0.24,0.12,0.357,0.201,0.638,0.319c0.24,0.155,0.44,0.237,0.678,0.396
	c0.159,0.121,0.275,0.161,0.437,0.32c0.118,0.119,0.157,0.2,0.239,0.357c0.039,0.121,0.039,0.199,0.039,0.318
	c0,0.161,0,0.28-0.08,0.398c-0.08,0.119-0.157,0.199-0.28,0.277c-0.118,0.082-0.238,0.119-0.396,0.159
	c-0.197,0.08-0.359,0.04-0.599,0c-0.197,0-0.279-0.077-0.477-0.159c-0.238-0.078-0.357-0.158-0.556-0.316
	c-0.161-0.122-0.36-0.319-0.598-0.52c-0.239-0.277-0.317-0.437-0.555-0.675c-0.078-0.121-0.162-0.28-0.238-0.319
	c-0.042,0-0.123,0.039-0.123,0.078v2.705c0.123,0.123,0.199,0.202,0.361,0.322c0.238,0.159,0.397,0.24,0.676,0.359
	c0.279,0.119,0.436,0.158,0.755,0.274c0.278,0.08,0.436,0.121,0.717,0.162c0.149,0.03,0.256,0.038,0.368,0.042
	c0.006,0,0.008-0.003,0.008-0.003l0.005,0.003h0.01h0.008h0.007h0.005h0.007h0.008h0.006h0.008h0.007h0.009h0.004h0.009h0.008h0.877
	c0.238-0.042,0.394-0.042,0.636-0.124c0.198-0.038,0.278-0.038,0.475-0.118c0.28-0.078,0.4-0.16,0.639-0.318
	c0.24-0.158,0.4-0.236,0.598-0.438c0.199-0.161,0.357-0.358,0.517-0.635c0.237-0.36,0.357-0.558,0.438-0.954
	c0.037-0.241,0.078-0.361,0.078-0.559c0.043-0.358,0.08-0.558,0.043-0.879c-0.043-0.354-0.121-0.557-0.243-0.873
	c-0.118-0.356-0.238-0.559-0.435-0.875c-0.238-0.317-0.36-0.479-0.677-0.715c-0.239-0.24-0.399-0.322-0.717-0.52
	c-0.319-0.2-0.518-0.241-0.835-0.398c-0.359-0.197-0.558-0.24-0.838-0.437c-0.196-0.119-0.317-0.2-0.435-0.36
	c-0.121-0.119-0.199-0.197-0.24-0.357V5.288c0.041-0.158,0.119-0.279,0.24-0.357c0.158-0.158,0.317-0.158,0.517-0.199
	c0.198,0,0.317,0,0.518,0.041c0.238,0.041,0.357,0.08,0.596,0.197c0.236,0.08,0.357,0.16,0.557,0.278
	c0.197,0.159,0.318,0.239,0.478,0.399c0.276,0.238,0.396,0.358,0.637,0.638c0.078,0.078,0.078,0.196,0.199,0.196
	C55.761,6.481,55.843,6.521,55.843,6.481"/>
<path d="M59.862,3.18l5.413,9.909l0.077,0.08c0.083,0.08,0.12,0.121,0.24,0.201c0.12,0.077,0.161,0.118,0.319,0.199
	c0.119,0.038,0.2,0.038,0.281,0.075c0.077,0,0.116,0,0.159,0.082c0,0.081-0.043,0.16-0.082,0.16h-4.298
	c-0.119,0-0.16-0.039-0.28-0.039c-0.159-0.04-0.239-0.082-0.395-0.158c-0.161-0.12-0.241-0.201-0.36-0.319
	c-0.12-0.162-0.16-0.24-0.279-0.399c-0.795-1.433-0.834-1.554-1.673-3.146c-0.077-0.117-0.157-0.158-0.276-0.24
	c-0.119-0.076-0.2-0.076-0.323-0.117c-0.156,0-0.235,0-0.353,0.041c-0.158,0.039-0.24,0.039-0.359,0.158
	c-0.16,0.078-0.201,0.158-0.278,0.279c-0.08,0.12-0.12,0.278-0.2,0.397c-0.042,0.038-0.079,0.077-0.157,0.038
	c-0.041,0-0.082-0.079-0.041-0.118c0.996-2.545,0.955-2.468,2.787-7.084H59.862z"/>
<path d="M60.948,45.292c2.033-1.461,1.534-4.532-1.479-4.532c-1.593,0-2.427,1.036-2.646,2.479l-1.647-0.134v7.113l5.788-4.927
	H60.948z"/>
<path d="M59.466,38.892c1.51,0,2.68,0.513,3.477,1.289v-2.95h-7.766v4.864C55.752,40.259,57.165,38.892,59.466,38.892"/>
<path d="M65.424,50.179c0.687,1.041,1.909,1.736,3.308,1.736c2.154,0,3.901-1.645,3.901-3.673s-1.747-3.673-3.901-3.673
	c-1.209,0-2.291,0.521-3.006,1.338h-2.619l-4.902,4.271h3.109H65.424z"/>
<path d="M73.884,44.593v-5.495h-8.403l-0.014,4.127c1.343-1.153,3.995-1.319,5.909-0.544C72.448,43.122,73.284,43.79,73.884,44.593"
	/>
<polygon points="52.978,37.229 49.297,37.229 49.297,42.41 "/>
<path d="M70.694,63.459l2.633,4.81c0.129,0.241,0.279,0.28,0.498,0.35c0.076,0.024,0.058,0.112-0.037,0.112h-2.011
	c-0.292,0-0.53-0.153-0.687-0.446l-0.808-1.529c-0.173-0.329-0.736-0.27-0.887,0.201c-0.025,0.08-0.138,0.049-0.105-0.026
	l1.362-3.471H70.694z"/>
<path d="M53.364,63.468l0.247,1.137c0.013,0.046-0.073,0.061-0.088,0.012c-0.171-0.492-0.696-0.816-1.343-0.816h-0.573v2.014h1.144
	c0.259,0,0.408-0.256,0.388-0.47c-0.005-0.064,0.09-0.11,0.112-0.024l0.373,1.665c0.015,0.056-0.084,0.056-0.096,0.004
	c-0.18-0.655-1.044-0.836-1.427-0.836h-0.494v1.833c0,0.271,0.179,0.434,0.398,0.503c0.074,0.025,0.056,0.114-0.037,0.114H49.73
	V64.02c0-0.255-0.212-0.452-0.387-0.454c-0.059,0-0.059-0.098-0.006-0.098H53.364z"/>
<path d="M57.777,63.468l0.247,1.137c0.01,0.046-0.072,0.061-0.088,0.012c-0.171-0.492-0.697-0.816-1.345-0.816H56.02v2.017h1.146
	c0.258,0,0.406-0.259,0.386-0.473c-0.005-0.066,0.09-0.11,0.11-0.024l0.379,1.665c0.012,0.056-0.086,0.056-0.1,0.004
	c-0.179-0.655-1.042-0.836-1.426-0.836H56.02v2.106h0.427c0.744,0,1.322-0.336,1.484-0.812c0.024-0.065,0.116-0.053,0.102,0.005
	l-0.272,1.15h-3.618V64.02c0-0.255-0.211-0.452-0.385-0.454c-0.063,0-0.057-0.098-0.008-0.098H57.777z"/>
<path d="M64.647,63.468v4.518c0,0.271,0.18,0.434,0.398,0.504c0.075,0.024,0.058,0.113-0.037,0.113h-2.238v-3.479l-1.428,3.6H61.31
	l-2.027-3.674v2.936c0,0.271,0.178,0.434,0.396,0.504c0.076,0.024,0.061,0.113-0.037,0.113H58.58V64.02
	c0-0.253-0.211-0.452-0.387-0.454c-0.062,0-0.059-0.098-0.007-0.098h2.108c0.216,0,0.413,0.121,0.506,0.289l0.893,1.599
	c0.142,0.252,0.519,0.222,0.57-0.088l0.287-1.733c0.008-0.043,0.04-0.066,0.087-0.066H64.647z"/>
<path d="M68.688,64.948c0.003,0.056-0.054,0.09-0.103,0.019c-0.168-0.245-0.685-0.804-1.251-0.821
	c-0.274-0.009-0.536,0.084-0.542,0.356c-0.02,0.764,2.268,0.548,2.174,2.675c-0.049,1.081-1.039,1.618-1.899,1.616
	c-1.033-0.004-1.669-0.589-1.669-0.589v-1.305c0-0.069,0.066-0.062,0.088-0.03c0.293,0.478,0.765,0.901,1.199,0.966
	c0.207,0.029,0.523,0,0.621-0.303c0.285-0.862-2.069-0.764-2.082-2.607c-0.008-1.152,0.981-1.544,1.714-1.582
	c0.819-0.041,1.668,0.352,1.668,0.352L68.688,64.948z"/>
<path d="M63.464,59.529c-0.024,0.056-0.036,0.157-0.036,0.308c0,0.149,0.014,0.256,0.041,0.311c0.026,0.057,0.065,0.083,0.116,0.083
	c0.031,0,0.062-0.013,0.086-0.035c0.025-0.026,0.043-0.062,0.056-0.114c0.01-0.05,0.016-0.129,0.016-0.236
	c0-0.157-0.012-0.264-0.039-0.317c-0.028-0.056-0.069-0.08-0.121-0.08C63.528,59.447,63.489,59.472,63.464,59.529 M59.686,59.834
	c0.046,0,0.086-0.016,0.115-0.05c0.032-0.033,0.047-0.083,0.047-0.146c0-0.062-0.017-0.114-0.05-0.15
	c-0.031-0.038-0.071-0.057-0.117-0.057c-0.044,0-0.08,0.019-0.11,0.052c-0.029,0.03-0.043,0.083-0.043,0.147
	c0,0.067,0.014,0.117,0.047,0.152C59.605,59.818,59.641,59.834,59.686,59.834 M52.842,57.558c0.026-0.053,0.038-0.118,0.038-0.199
	v-0.105c-0.09,0.034-0.183,0.061-0.28,0.086c-0.136,0.037-0.217,0.07-0.252,0.106c-0.038,0.035-0.056,0.077-0.056,0.12
	c0,0.051,0.018,0.093,0.054,0.126c0.037,0.034,0.09,0.05,0.159,0.05c0.074,0,0.141-0.02,0.205-0.054
	C52.771,57.652,52.816,57.608,52.842,57.558 M58.7,59.663c0.023-0.025,0.035-0.057,0.035-0.098c0-0.04-0.012-0.073-0.037-0.1
	s-0.059-0.039-0.097-0.039c-0.042,0-0.073,0.013-0.098,0.039c-0.027,0.024-0.039,0.058-0.039,0.097c0,0.042,0.014,0.075,0.039,0.1
	c0.025,0.025,0.061,0.038,0.104,0.038C58.642,59.7,58.676,59.688,58.7,59.663 M58.71,60.201c0.031-0.032,0.047-0.077,0.047-0.127
	c0-0.052-0.016-0.096-0.047-0.13c-0.032-0.033-0.068-0.05-0.109-0.05c-0.042,0-0.078,0.017-0.108,0.049
	c-0.033,0.032-0.045,0.076-0.045,0.133c0,0.05,0.016,0.093,0.045,0.128c0.035,0.033,0.071,0.047,0.111,0.047
	C58.642,60.251,58.678,60.234,58.71,60.201 M59.8,56.815c-0.038,0.052-0.064,0.128-0.076,0.23l0.646-0.004
	c-0.012-0.125-0.047-0.215-0.102-0.269c-0.056-0.056-0.128-0.083-0.217-0.083C59.946,56.69,59.863,56.732,59.8,56.815
	 M60.958,60.081c0.011-0.05,0.018-0.129,0.018-0.236c0-0.157-0.016-0.264-0.041-0.317c-0.028-0.056-0.067-0.08-0.119-0.08
	c-0.056,0-0.095,0.024-0.12,0.082c-0.023,0.056-0.037,0.157-0.037,0.308c0,0.149,0.014,0.256,0.039,0.311
	c0.028,0.057,0.068,0.083,0.118,0.083c0.035,0,0.064-0.013,0.088-0.035C60.928,60.169,60.946,60.134,60.958,60.081 M66.025,57.531
	c0.026-0.051,0.04-0.118,0.04-0.197l-0.002-0.105c-0.088,0.03-0.183,0.06-0.281,0.085c-0.132,0.035-0.217,0.072-0.252,0.105
	c-0.037,0.035-0.054,0.076-0.054,0.122c0,0.05,0.017,0.093,0.054,0.123c0.035,0.034,0.088,0.05,0.158,0.05
	c0.073,0,0.141-0.017,0.206-0.052C65.954,57.626,65.999,57.584,66.025,57.531 M70.792,57.519c0.064-0.071,0.093-0.188,0.093-0.348
	c0-0.146-0.032-0.258-0.093-0.33c-0.062-0.072-0.137-0.106-0.226-0.106c-0.099,0-0.175,0.036-0.237,0.108
	c-0.062,0.074-0.094,0.188-0.094,0.334c0.003,0.157,0.032,0.269,0.094,0.342c0.062,0.07,0.138,0.107,0.233,0.107
	C70.655,57.626,70.734,57.589,70.792,57.519 M71.542,57.169c0,0.264-0.086,0.478-0.26,0.646c-0.172,0.169-0.416,0.254-0.723,0.254
	c-0.275,0.001-0.497-0.068-0.667-0.208c-0.209-0.173-0.313-0.399-0.315-0.679c0-0.262,0.088-0.478,0.265-0.646
	c0.174-0.169,0.411-0.255,0.712-0.255c0.342-0.001,0.601,0.1,0.777,0.296C71.471,56.738,71.54,56.936,71.542,57.169 M69.241,58.033
	l-0.654,0.001l-0.002-1.708l0.654-0.002L69.241,58.033z M69.239,56.12h-0.654l-0.004-0.445l0.658-0.002V56.12z M68.448,56.376
	l-0.203,0.467c-0.076-0.032-0.136-0.047-0.181-0.047c-0.087,0-0.153,0.035-0.2,0.107c-0.068,0.098-0.102,0.286-0.101,0.561
	l0.002,0.573h-0.659l-0.003-1.709l0.611-0.001v0.28c0.062-0.121,0.123-0.205,0.186-0.252c0.062-0.045,0.138-0.069,0.232-0.069
	C68.228,56.286,68.333,56.316,68.448,56.376 M66.788,58.037l-0.615,0.001c-0.024-0.042-0.04-0.076-0.049-0.097
	c-0.004-0.024-0.015-0.062-0.021-0.111c-0.086,0.083-0.171,0.142-0.255,0.179c-0.117,0.047-0.251,0.071-0.405,0.071
	c-0.204,0-0.358-0.047-0.465-0.139c-0.106-0.099-0.157-0.213-0.157-0.353c0-0.13,0.034-0.236,0.112-0.318
	c0.077-0.085,0.216-0.148,0.422-0.189c0.245-0.05,0.403-0.085,0.478-0.105c0.072-0.02,0.151-0.045,0.23-0.077
	c0-0.081-0.015-0.138-0.05-0.17c-0.033-0.03-0.092-0.048-0.174-0.048c-0.108,0-0.189,0.018-0.242,0.054
	c-0.043,0.026-0.075,0.076-0.102,0.151l-0.625-0.063c0.023-0.112,0.056-0.196,0.101-0.261c0.043-0.064,0.108-0.116,0.192-0.165
	c0.059-0.033,0.144-0.058,0.248-0.077c0.104-0.018,0.219-0.028,0.342-0.028c0.195,0,0.353,0.011,0.472,0.033
	c0.119,0.021,0.22,0.067,0.298,0.138c0.056,0.045,0.099,0.115,0.134,0.204c0.032,0.089,0.047,0.173,0.047,0.253l0.002,0.756
	c0,0.078,0.006,0.143,0.016,0.19C66.732,57.91,66.753,57.968,66.788,58.037 M64.684,59.226h0.272v1.211H64.62v-0.792
	c-0.051,0.038-0.103,0.073-0.156,0.099c-0.051,0.026-0.113,0.049-0.188,0.072v-0.271c0.111-0.035,0.201-0.078,0.26-0.131
	C64.599,59.364,64.648,59.302,64.684,59.226 M63.427,56.777c0,0.042,0.021,0.073,0.064,0.095s0.135,0.041,0.281,0.057
	c0.217,0.025,0.38,0.06,0.486,0.103c0.105,0.044,0.187,0.106,0.243,0.188c0.057,0.08,0.084,0.17,0.084,0.269
	c0,0.097-0.027,0.194-0.088,0.287c-0.058,0.095-0.151,0.168-0.28,0.224c-0.13,0.055-0.302,0.082-0.523,0.082
	c-0.314,0.004-0.537-0.043-0.668-0.13c-0.134-0.09-0.22-0.217-0.258-0.381l0.649-0.063c0.029,0.078,0.068,0.135,0.115,0.166
	c0.049,0.036,0.112,0.053,0.195,0.049c0.088,0,0.153-0.017,0.204-0.056c0.036-0.026,0.057-0.061,0.057-0.104
	c0-0.048-0.028-0.085-0.077-0.109c-0.035-0.018-0.129-0.04-0.281-0.067c-0.226-0.039-0.385-0.075-0.473-0.11
	c-0.09-0.032-0.164-0.089-0.225-0.17c-0.062-0.08-0.093-0.171-0.093-0.274c0-0.111,0.033-0.209,0.1-0.289
	c0.064-0.084,0.155-0.146,0.269-0.185c0.115-0.041,0.268-0.062,0.463-0.062c0.203,0,0.353,0.015,0.451,0.045
	c0.098,0.03,0.176,0.078,0.244,0.146c0.066,0.065,0.119,0.153,0.163,0.265l-0.624,0.062c-0.015-0.055-0.042-0.094-0.08-0.12
	c-0.051-0.034-0.113-0.052-0.186-0.052c-0.074,0-0.129,0.014-0.163,0.041C63.444,56.71,63.427,56.739,63.427,56.777 M62.743,59.267
	c0.065,0.025,0.115,0.067,0.153,0.119c0.036,0.058,0.054,0.119,0.054,0.188c0,0.071-0.019,0.141-0.063,0.207
	c-0.041,0.064-0.119,0.139-0.23,0.219c-0.068,0.045-0.111,0.078-0.134,0.096c-0.022,0.019-0.048,0.041-0.08,0.072h0.515v0.27h-0.989
	c0.011-0.1,0.046-0.191,0.104-0.277c0.057-0.085,0.164-0.188,0.324-0.305c0.096-0.073,0.157-0.127,0.184-0.163
	c0.028-0.039,0.041-0.075,0.041-0.106c0-0.037-0.013-0.066-0.041-0.095c-0.027-0.024-0.06-0.036-0.1-0.036
	c-0.043,0-0.076,0.012-0.103,0.038c-0.027,0.027-0.045,0.073-0.055,0.14l-0.33-0.025c0.014-0.094,0.037-0.167,0.072-0.221
	c0.035-0.051,0.083-0.09,0.145-0.117c0.064-0.028,0.152-0.043,0.261-0.043C62.587,59.226,62.678,59.239,62.743,59.267 M62.69,56.388
	l-0.202,0.468c-0.077-0.031-0.14-0.05-0.183-0.05c-0.086,0-0.152,0.037-0.201,0.107c-0.066,0.102-0.101,0.287-0.099,0.561
	l0.002,0.572l-0.659,0.002l-0.004-1.709h0.612l0.002,0.278c0.058-0.12,0.119-0.205,0.183-0.251c0.063-0.045,0.139-0.068,0.229-0.068
	C62.469,56.298,62.575,56.328,62.69,56.388 M61.303,59.831c0,0.217-0.035,0.374-0.109,0.475c-0.074,0.099-0.199,0.149-0.377,0.149
	c-0.1,0-0.181-0.015-0.242-0.048c-0.062-0.031-0.111-0.078-0.152-0.141c-0.027-0.043-0.051-0.104-0.065-0.18
	c-0.017-0.074-0.025-0.16-0.025-0.25c0-0.226,0.041-0.385,0.121-0.474c0.08-0.092,0.205-0.138,0.371-0.138
	c0.082,0,0.148,0.011,0.198,0.031c0.05,0.02,0.095,0.045,0.126,0.077c0.033,0.03,0.057,0.064,0.076,0.099
	c0.02,0.033,0.034,0.074,0.045,0.121C61.294,59.645,61.303,59.735,61.303,59.831 M61.04,57.357l-1.316,0.003
	c0.013,0.104,0.041,0.184,0.088,0.232c0.06,0.076,0.146,0.112,0.247,0.112c0.065,0,0.126-0.017,0.182-0.049
	c0.037-0.021,0.075-0.056,0.115-0.108l0.647,0.06c-0.099,0.17-0.217,0.294-0.358,0.37c-0.138,0.074-0.339,0.109-0.601,0.109
	c-0.226,0.002-0.403-0.029-0.533-0.091c-0.133-0.063-0.238-0.166-0.325-0.305c-0.086-0.14-0.129-0.302-0.129-0.49
	c0-0.267,0.086-0.483,0.257-0.649c0.171-0.166,0.408-0.248,0.708-0.248c0.244-0.002,0.438,0.035,0.579,0.108
	c0.142,0.075,0.251,0.181,0.325,0.323c0.073,0.141,0.114,0.322,0.114,0.55V57.357z M59.05,59.544c0,0.055-0.016,0.104-0.047,0.151
	c-0.021,0.034-0.057,0.067-0.105,0.101c0.064,0.032,0.111,0.072,0.144,0.123c0.031,0.051,0.047,0.106,0.047,0.168
	c0,0.061-0.014,0.117-0.041,0.166c-0.027,0.053-0.061,0.092-0.102,0.121c-0.039,0.026-0.088,0.047-0.146,0.062
	c-0.061,0.013-0.123,0.019-0.191,0.019c-0.124,0-0.223-0.015-0.288-0.043c-0.068-0.032-0.117-0.075-0.152-0.133
	c-0.033-0.058-0.053-0.122-0.053-0.194c0-0.07,0.018-0.129,0.049-0.177c0.033-0.046,0.084-0.085,0.152-0.112
	c-0.053-0.026-0.09-0.059-0.115-0.092c-0.033-0.047-0.048-0.1-0.048-0.162c0-0.098,0.046-0.179,0.14-0.244
	c0.072-0.047,0.17-0.072,0.289-0.072c0.16,0,0.276,0.031,0.352,0.092C59.012,59.378,59.05,59.454,59.05,59.544 M59.034,56.343
	l-0.722,1.711l-0.581,0.002l-0.715-1.709l0.682-0.002l0.334,1.084l0.342-1.084L59.034,56.343z M56.796,58.056l-0.658,0.002
	l-0.003-1.707l0.655-0.004L56.796,58.056z M56.79,56.144l-0.655,0.001v-0.446l0.653-0.001L56.79,56.144z M55.724,58.058
	l-0.659,0.004l-0.001-0.941c0-0.105-0.02-0.183-0.061-0.227c-0.039-0.045-0.096-0.067-0.168-0.067
	c-0.08,0.001-0.143,0.03-0.191,0.091c-0.05,0.061-0.075,0.168-0.073,0.324l0.002,0.82l-0.656,0.002l-0.006-1.71h0.612l0.001,0.276
	c0.09-0.111,0.182-0.195,0.276-0.244c0.095-0.047,0.207-0.073,0.341-0.073c0.182,0,0.323,0.054,0.427,0.159
	c0.101,0.109,0.152,0.275,0.152,0.502L55.724,58.058z M53.605,58.063l-0.616,0.001c-0.025-0.043-0.039-0.076-0.047-0.103
	c-0.009-0.02-0.016-0.057-0.023-0.106c-0.086,0.086-0.172,0.144-0.256,0.178c-0.117,0.047-0.25,0.071-0.403,0.071
	c-0.205,0-0.36-0.047-0.466-0.143c-0.105-0.091-0.158-0.209-0.158-0.347c0-0.13,0.037-0.237,0.113-0.321
	c0.076-0.084,0.217-0.145,0.42-0.188c0.246-0.048,0.406-0.081,0.479-0.104c0.073-0.02,0.15-0.046,0.232-0.078
	c0-0.08-0.016-0.136-0.049-0.168c-0.033-0.033-0.092-0.05-0.178-0.05c-0.107,0.004-0.189,0.019-0.24,0.054
	c-0.043,0.027-0.076,0.076-0.1,0.152l-0.627-0.064c0.022-0.111,0.057-0.196,0.102-0.262c0.043-0.06,0.109-0.117,0.191-0.162
	c0.061-0.035,0.143-0.06,0.25-0.078c0.104-0.018,0.217-0.026,0.34-0.026c0.195-0.002,0.354,0.009,0.471,0.032
	c0.119,0.021,0.22,0.066,0.299,0.137c0.057,0.047,0.101,0.115,0.133,0.204c0.033,0.09,0.049,0.173,0.049,0.253l0.001,0.755
	c0,0.082,0.007,0.144,0.016,0.19C53.548,57.936,53.572,57.992,53.605,58.063 M57.077,59.544c0.114-0.035,0.199-0.078,0.262-0.131
	c0.062-0.049,0.111-0.111,0.147-0.188h0.272v1.211h-0.335v-0.792c-0.053,0.038-0.104,0.073-0.156,0.099
	c-0.048,0.026-0.113,0.049-0.19,0.072V59.544z M59.862,59.923c-0.041,0.039-0.082,0.069-0.123,0.088
	c-0.043,0.02-0.09,0.028-0.145,0.028c-0.106,0-0.197-0.038-0.271-0.114c-0.07-0.076-0.109-0.172-0.109-0.285
	c0-0.079,0.02-0.15,0.057-0.217c0.037-0.064,0.09-0.113,0.154-0.146c0.064-0.032,0.146-0.051,0.248-0.051
	c0.117,0,0.213,0.021,0.285,0.062c0.072,0.042,0.127,0.104,0.172,0.195c0.041,0.09,0.063,0.206,0.063,0.352
	c0,0.214-0.044,0.371-0.134,0.472c-0.09,0.099-0.215,0.149-0.375,0.149c-0.097,0-0.17-0.009-0.224-0.034
	c-0.055-0.021-0.099-0.053-0.137-0.095c-0.035-0.041-0.063-0.094-0.084-0.157l0.329-0.043c0.007,0.047,0.021,0.079,0.044,0.098
	c0.021,0.021,0.045,0.027,0.076,0.027c0.053,0,0.092-0.025,0.124-0.078C59.833,60.134,59.85,60.05,59.862,59.923 M61.409,59.872
	h0.48v0.257h-0.48V59.872z M63.102,59.837c0-0.226,0.04-0.385,0.121-0.474c0.081-0.092,0.205-0.138,0.371-0.138
	c0.079,0,0.145,0.011,0.196,0.031c0.053,0.02,0.095,0.045,0.127,0.077c0.033,0.03,0.057,0.064,0.076,0.099
	c0.021,0.033,0.034,0.074,0.045,0.121c0.023,0.091,0.033,0.182,0.033,0.277c0,0.217-0.037,0.374-0.109,0.475
	c-0.072,0.099-0.199,0.149-0.377,0.149c-0.1,0-0.18-0.015-0.243-0.048c-0.06-0.031-0.113-0.078-0.151-0.141
	c-0.028-0.043-0.051-0.104-0.067-0.18C63.109,60.013,63.102,59.927,63.102,59.837 M65.301,60.126l0.335-0.037
	c0.007,0.055,0.025,0.096,0.055,0.125c0.032,0.025,0.067,0.041,0.107,0.041c0.046,0,0.085-0.018,0.115-0.054
	c0.029-0.034,0.045-0.085,0.045-0.155s-0.016-0.123-0.045-0.154c-0.031-0.035-0.071-0.051-0.123-0.051
	c-0.03,0-0.06,0.006-0.092,0.022c-0.022,0.013-0.045,0.033-0.072,0.062l-0.282-0.039l0.104-0.639h0.786v0.264h-0.532l-0.029,0.178
	c0.039-0.018,0.074-0.031,0.109-0.039c0.037-0.01,0.072-0.012,0.107-0.012c0.121,0,0.216,0.033,0.288,0.107
	c0.076,0.07,0.113,0.161,0.113,0.27c0,0.078-0.02,0.152-0.056,0.223c-0.038,0.07-0.093,0.124-0.163,0.162s-0.16,0.056-0.269,0.056
	c-0.077,0-0.145-0.007-0.202-0.022c-0.056-0.016-0.103-0.037-0.142-0.066c-0.041-0.029-0.072-0.062-0.095-0.1
	C65.337,60.229,65.318,60.183,65.301,60.126 M73.884,61.562V51.72c-1.042,1.427-2.789,2.431-5.219,2.431
	c-2.176,0-3.851-0.767-4.985-2.234h-8.504v2.261h-2.452v-12.51l-2.303,3.139L49.3,43.995v17.567H73.884z"/>
<path d="M103.183,39.269v-0.787l3.174,1.84v6.805l-3.174,1.006V39.269z M107.235,46.851v-6.782v-0.252l-0.219-0.128l-3.73-2.161
	l-0.197-0.115l-0.207,0.097l-3.504,1.64l-0.251,0.118v0.281v1.937h0.875v-1.659l2.809-1.316v9.072v0.67l-3.411,1.077l-0.366,0.121
	v0.386v2.535h1.064v-2.146l17.451-5.623l0.002-1.015L107.235,46.851z"/>
<path d="M115.794,64.382h-4.35c0.252-0.026,0.504-0.051,0.756-0.071c0.978-0.083,1.955-0.163,2.935-0.246
	c0.203-0.015,0.142-0.321-0.056-0.308c-2.733,0.15-5.469,0.301-8.2,0.455c-0.026-0.002-0.058-0.004-0.085-0.004
	c2.133-0.203,4.264-0.403,6.396-0.605c0.434-0.04,0.869-0.081,1.303-0.122c0.199-0.019,0.144-0.326-0.055-0.308
	c-1.513,0.136-3.025,0.272-4.537,0.41c1.021-0.156,2.039-0.312,3.061-0.467c0.299-0.046,0.6-0.093,0.898-0.14
	c0.201-0.029,0.146-0.338-0.053-0.308c-2.271,0.343-4.541,0.688-6.812,1.027c1.914-0.431,3.834-0.865,5.748-1.296
	c0.117-0.028,0.238-0.054,0.361-0.081c0.194-0.044,0.143-0.352-0.057-0.311c-1.871,0.421-3.742,0.838-5.611,1.257
	c1.611-0.503,3.223-1.007,4.836-1.509c0.047-0.014,0.092-0.026,0.137-0.041c0.188-0.061,0.143-0.359-0.055-0.311
	c-1.56,0.41-3.117,0.817-4.676,1.227c1.387-0.478,2.779-0.957,4.167-1.438l0.015-0.004c0.166-0.057,0.074-0.343-0.096-0.296
	c-1.475,0.433-2.951,0.864-4.428,1.3c1.311-0.507,2.623-1.01,3.936-1.515c0.164-0.065,0.073-0.351-0.096-0.293
	c-1.436,0.452-2.872,0.907-4.309,1.362c1.246-0.526,2.492-1.055,3.738-1.582c0.188-0.08,0.051-0.347-0.136-0.281
	c-1.423,0.503-2.849,1.005-4.272,1.509c1.256-0.616,2.515-1.235,3.769-1.851c0.181-0.088,0.052-0.359-0.138-0.281
	c-1.111,0.445-2.223,0.895-3.336,1.343c0.972-0.515,1.947-1.03,2.92-1.542c0.181-0.095,0.053-0.357-0.135-0.282
	c-1.014,0.4-2.027,0.8-3.043,1.197c0.875-0.463,1.752-0.931,2.625-1.396c0.18-0.095,0.055-0.357-0.133-0.281
	c-0.812,0.314-1.625,0.634-2.436,0.951c0.693-0.364,1.388-0.729,2.082-1.094c0.179-0.095,0.053-0.352-0.135-0.285
	c-0.651,0.24-1.299,0.479-1.951,0.717c0.521-0.262,1.041-0.521,1.562-0.781c0.184-0.091,0.053-0.348-0.135-0.281
	c-0.699,0.242-1.4,0.488-2.1,0.733c0.594-0.316,1.188-0.632,1.781-0.949c0.182-0.095,0.055-0.353-0.133-0.283
	c-0.576,0.218-1.154,0.433-1.73,0.651c0.461-0.264,0.922-0.523,1.383-0.786c0.175-0.101,0.055-0.356-0.133-0.283
	c-0.516,0.196-1.028,0.392-1.543,0.587c0.396-0.244,0.793-0.486,1.188-0.728c0.173-0.105,0.058-0.353-0.135-0.284
	c-0.416,0.154-0.837,0.307-1.255,0.462c0.309-0.196,0.613-0.392,0.922-0.586c0.167-0.106,0.057-0.358-0.135-0.282
	c-0.342,0.131-0.68,0.268-1.016,0.399c0.242-0.179,0.486-0.356,0.732-0.532c0.152-0.111-0.012-0.318-0.17-0.261
	c-0.26,0.096-0.514,0.19-0.773,0.288c0.17-0.135,0.34-0.27,0.51-0.404c0.121-0.096,0.021-0.301-0.129-0.273
	c-0.158,0.028-0.312,0.06-0.473,0.088c0.139-0.129-0.055-0.355-0.209-0.229c-0.061,0.049-0.182,0.006-0.182-0.091
	c0.002-0.104,0.016-0.264-0.008-0.266c-0.98-0.207-1.959-0.41-2.941-0.617c-1.961-0.405-3.92-0.816-5.881-1.226
	c-1.461-0.305-2.922-0.61-4.381-0.916c-0.121-0.024-0.242-0.05-0.363-0.075c0.008,0.002-0.006,0.502-0.006,0.531
	c0,0.032-0.018,0.529,0.006,0.534c0.979,0.206,1.96,0.409,2.943,0.615c1.961,0.407,3.916,0.817,5.877,1.226
	c1.461,0.305,2.922,0.611,4.385,0.915c0.121,0.027,0.242,0.054,0.361,0.077c0,0,0.102-0.005,0.102-0.053
	c0.076-0.045,0.104-0.069,0.205-0.088c-0.264,0.207-0.521,0.416-0.786,0.623c-0.146,0.115,0.011,0.317,0.169,0.261
	c0.209-0.079,0.417-0.156,0.627-0.233c-0.266,0.191-0.531,0.385-0.796,0.577c-0.151,0.11,0.013,0.323,0.169,0.261
	c0.212-0.084,0.426-0.166,0.639-0.252c-0.258,0.165-0.516,0.327-0.773,0.491c-0.168,0.106-0.055,0.353,0.135,0.283
	c0.383-0.14,0.764-0.283,1.146-0.419c-0.426,0.259-0.854,0.521-1.281,0.785c-0.17,0.104-0.055,0.351,0.135,0.279
	c0.4-0.151,0.801-0.304,1.201-0.457c-0.445,0.252-0.891,0.508-1.336,0.76c-0.176,0.103-0.053,0.354,0.135,0.281
	c0.443-0.166,0.891-0.334,1.334-0.498c-0.488,0.258-0.98,0.521-1.469,0.78c-0.18,0.097-0.053,0.349,0.135,0.283
	c0.568-0.199,1.139-0.399,1.707-0.599c-0.613,0.308-1.229,0.611-1.842,0.92c-0.184,0.093-0.053,0.354,0.135,0.285
	c0.785-0.287,1.574-0.58,2.361-0.866c-0.834,0.438-1.666,0.876-2.496,1.313c-0.178,0.094-0.053,0.355,0.135,0.283
	c0.846-0.332,1.686-0.661,2.533-0.991c-0.891,0.472-1.779,0.945-2.668,1.415c-0.178,0.098-0.053,0.358,0.135,0.284
	c0.99-0.39,1.98-0.78,2.971-1.168c-1.035,0.548-2.068,1.091-3.105,1.638c-0.178,0.094-0.053,0.358,0.135,0.282
	c0.734-0.293,1.467-0.59,2.201-0.885c-0.78,0.383-1.557,0.763-2.336,1.144c-0.186,0.092-0.053,0.352,0.135,0.286
	c0.662-0.235,1.324-0.469,1.988-0.702c-0.707,0.299-1.414,0.598-2.123,0.897c-0.158,0.069-0.074,0.351,0.095,0.295
	c0.841-0.267,1.683-0.531,2.524-0.798c-0.875,0.335-1.746,0.671-2.619,1.005c-0.164,0.063-0.074,0.344,0.095,0.297
	c0.573-0.169,1.147-0.337,1.722-0.505c-0.6,0.206-1.201,0.413-1.801,0.619l-0.016,0.005c-0.166,0.058-0.074,0.342,0.095,0.296
	c0.709-0.184,1.414-0.368,2.122-0.555c-0.667,0.205-1.334,0.416-1.999,0.625c-0.045,0.012-0.091,0.024-0.136,0.041
	c-0.153,0.048-0.152,0.256-0.032,0.3c-0.136,0.047-0.116,0.304,0.045,0.304h9.328h2.679
	C115.965,64.694,115.995,64.382,115.794,64.382"/>
<path d="M91.781,67.048l-0.231,0.225c-0.161-0.168-0.34-0.253-0.541-0.253c-0.166,0-0.31,0.056-0.424,0.173
	c-0.116,0.113-0.174,0.254-0.174,0.423c0,0.116,0.025,0.22,0.078,0.31c0.053,0.093,0.121,0.164,0.217,0.214
	c0.092,0.053,0.194,0.077,0.31,0.077c0.097,0,0.186-0.018,0.267-0.055c0.08-0.035,0.167-0.101,0.267-0.195l0.226,0.236
	c-0.133,0.129-0.254,0.215-0.37,0.267c-0.114,0.05-0.248,0.071-0.397,0.071c-0.274,0-0.499-0.084-0.672-0.258
	c-0.174-0.173-0.262-0.395-0.262-0.667c0-0.175,0.04-0.331,0.119-0.467c0.079-0.135,0.192-0.247,0.344-0.329
	c0.146-0.083,0.306-0.123,0.476-0.123c0.144,0,0.284,0.029,0.42,0.09C91.569,66.848,91.685,66.937,91.781,67.048"/>
<path d="M92.853,67.205l-0.238,0.606h0.474L92.853,67.205z M92.681,66.737h0.34l0.677,1.762h-0.347l-0.139-0.363h-0.721
	l-0.142,0.363h-0.35L92.681,66.737z"/>
<path d="M94.943,66.983l-0.245,0.22c-0.09-0.121-0.179-0.185-0.27-0.185c-0.044,0-0.08,0.014-0.111,0.035
	c-0.025,0.024-0.039,0.051-0.039,0.082c0,0.027,0.01,0.057,0.03,0.082c0.027,0.035,0.109,0.11,0.245,0.228
	c0.128,0.103,0.206,0.172,0.235,0.2c0.066,0.067,0.117,0.133,0.145,0.193c0.027,0.063,0.042,0.133,0.042,0.207
	c0,0.144-0.053,0.262-0.148,0.355c-0.103,0.096-0.231,0.142-0.392,0.142c-0.127,0-0.237-0.032-0.328-0.093
	c-0.095-0.062-0.174-0.158-0.243-0.29l0.285-0.168c0.085,0.155,0.182,0.233,0.292,0.233c0.06,0,0.106-0.017,0.146-0.051
	c0.041-0.035,0.06-0.072,0.06-0.115c0-0.041-0.016-0.08-0.045-0.12c-0.029-0.041-0.096-0.104-0.195-0.185
	c-0.193-0.156-0.317-0.275-0.373-0.359c-0.057-0.086-0.084-0.17-0.084-0.256c0-0.123,0.045-0.227,0.14-0.313
	c0.091-0.087,0.207-0.131,0.343-0.131c0.089,0,0.17,0.019,0.253,0.06C94.763,66.797,94.851,66.873,94.943,66.983"/>
<path d="M96.068,67.205l-0.236,0.606h0.471L96.068,67.205z M95.897,66.737h0.339l0.679,1.762h-0.35l-0.137-0.363h-0.72l-0.143,0.363
	h-0.352L95.897,66.737z"/>
<polygon points="97.982,66.737 98.313,66.737 98.313,68.175 98.806,68.175 98.806,68.499 97.982,68.499 "/>
<path d="M99.11,66.737h0.334v1.138c0,0.097,0.008,0.169,0.025,0.208c0.02,0.042,0.047,0.073,0.086,0.098
	c0.041,0.024,0.09,0.036,0.146,0.036c0.061,0,0.112-0.012,0.155-0.04c0.042-0.029,0.071-0.061,0.091-0.102
	c0.016-0.042,0.023-0.124,0.023-0.242v-1.096h0.332v1.05c0,0.176-0.012,0.301-0.03,0.369c-0.019,0.067-0.056,0.135-0.11,0.198
	c-0.058,0.063-0.123,0.112-0.197,0.143c-0.074,0.031-0.16,0.046-0.256,0.046c-0.129,0-0.24-0.03-0.334-0.09
	c-0.094-0.058-0.162-0.13-0.205-0.218c-0.039-0.09-0.061-0.237-0.061-0.448V66.737z"/>
<rect x="100.732" y="66.738" width="0.332" height="1.761"/>
<path d="M102.433,66.983l-0.248,0.22c-0.088-0.121-0.177-0.185-0.268-0.185c-0.043,0-0.08,0.014-0.107,0.035
	c-0.029,0.024-0.043,0.051-0.043,0.082c0,0.027,0.01,0.057,0.03,0.082c0.028,0.035,0.11,0.11,0.247,0.228
	c0.129,0.103,0.207,0.172,0.234,0.2c0.066,0.067,0.115,0.133,0.143,0.193c0.029,0.063,0.043,0.133,0.043,0.207
	c0,0.144-0.051,0.262-0.15,0.355c-0.1,0.096-0.23,0.142-0.391,0.142c-0.123,0-0.234-0.032-0.328-0.093
	c-0.094-0.062-0.171-0.158-0.238-0.29l0.283-0.168c0.083,0.155,0.18,0.233,0.291,0.233c0.059,0,0.105-0.017,0.145-0.051
	c0.041-0.035,0.06-0.072,0.06-0.115c0-0.041-0.017-0.08-0.043-0.12c-0.03-0.041-0.097-0.104-0.198-0.185
	c-0.191-0.156-0.316-0.275-0.371-0.359c-0.057-0.086-0.084-0.17-0.084-0.256c0-0.123,0.047-0.227,0.139-0.313
	c0.094-0.087,0.207-0.131,0.346-0.131c0.089,0,0.172,0.019,0.252,0.06C102.253,66.797,102.34,66.873,102.433,66.983"/>
<path d="M103.923,67.73v0.444h0.088c0.143,0,0.236-0.016,0.285-0.051c0.052-0.035,0.074-0.086,0.074-0.151
	c0-0.075-0.027-0.133-0.084-0.177c-0.06-0.041-0.154-0.065-0.289-0.065H103.923z M103.923,67.062v0.369h0.078
	c0.08,0,0.142-0.019,0.183-0.051c0.043-0.034,0.062-0.082,0.062-0.14c0-0.055-0.019-0.096-0.058-0.129
	c-0.036-0.035-0.097-0.05-0.177-0.05H103.923z M103.594,68.499v-1.762h0.276c0.16,0,0.281,0.01,0.354,0.033
	c0.104,0.026,0.188,0.079,0.252,0.154c0.06,0.076,0.095,0.165,0.095,0.268c0,0.068-0.016,0.129-0.041,0.186
	c-0.029,0.055-0.076,0.104-0.14,0.154c0.108,0.051,0.185,0.114,0.235,0.188c0.049,0.074,0.072,0.164,0.072,0.266
	c0,0.101-0.025,0.19-0.076,0.272c-0.051,0.081-0.117,0.141-0.199,0.181c-0.078,0.04-0.191,0.061-0.334,0.061H103.594z"/>
<path d="M105.792,67.205l-0.236,0.606h0.472L105.792,67.205z M105.62,66.737h0.342l0.676,1.762h-0.35l-0.138-0.363h-0.72
	l-0.145,0.363h-0.348L105.62,66.737z"/>
<path d="M107.312,67.426h0.106c0.107,0,0.184-0.014,0.223-0.042c0.043-0.029,0.062-0.074,0.062-0.14
	c0-0.039-0.011-0.072-0.031-0.101c-0.02-0.029-0.047-0.052-0.082-0.062c-0.033-0.015-0.094-0.019-0.186-0.019h-0.093V67.426z
	 M106.979,66.737h0.355c0.195,0,0.336,0.017,0.416,0.052c0.084,0.037,0.152,0.093,0.201,0.174c0.051,0.082,0.076,0.175,0.076,0.287
	c0,0.114-0.025,0.211-0.083,0.289c-0.058,0.077-0.14,0.136-0.25,0.174l0.417,0.786h-0.363l-0.398-0.746h-0.038v0.746h-0.333V66.737z
	"/>
<path d="M108.798,67.426h0.107c0.106,0,0.183-0.014,0.221-0.042c0.044-0.029,0.064-0.074,0.064-0.14
	c0-0.039-0.013-0.072-0.031-0.101c-0.021-0.029-0.047-0.052-0.082-0.062c-0.033-0.015-0.096-0.019-0.187-0.019h-0.093V67.426z
	 M108.464,66.737h0.359c0.193,0,0.332,0.017,0.416,0.052c0.084,0.037,0.149,0.093,0.199,0.174c0.053,0.082,0.075,0.175,0.075,0.287
	c0,0.114-0.028,0.211-0.082,0.289c-0.056,0.077-0.14,0.136-0.254,0.174l0.421,0.786h-0.363l-0.397-0.746h-0.04v0.746h-0.334V66.737z
	"/>
<path d="M110.642,67.205l-0.234,0.606h0.471L110.642,67.205z M110.471,66.737h0.341l0.678,1.762h-0.351l-0.138-0.363h-0.719
	l-0.146,0.363h-0.349L110.471,66.737z"/>
<path d="M113.438,67.026l-0.238,0.232c-0.15-0.16-0.324-0.238-0.523-0.238c-0.174,0-0.32,0.056-0.438,0.172
	c-0.117,0.113-0.176,0.252-0.176,0.418c0,0.17,0.062,0.312,0.184,0.432c0.121,0.117,0.271,0.175,0.449,0.175
	c0.117,0,0.215-0.024,0.295-0.069c0.08-0.049,0.145-0.123,0.193-0.224h-0.51v-0.317h0.885l0.004,0.074
	c0,0.154-0.041,0.301-0.121,0.437c-0.078,0.138-0.182,0.245-0.311,0.315c-0.127,0.075-0.275,0.11-0.447,0.11
	c-0.184,0-0.348-0.039-0.49-0.119c-0.145-0.081-0.258-0.194-0.342-0.338c-0.083-0.149-0.126-0.306-0.126-0.476
	c0-0.232,0.077-0.435,0.233-0.609c0.184-0.204,0.422-0.307,0.715-0.307c0.154,0,0.298,0.027,0.432,0.084
	C113.218,66.828,113.329,66.909,113.438,67.026"/>
<path d="M114.702,66.132h0.387l-0.438,0.469h-0.232L114.702,66.132z M114.646,67.205l-0.238,0.606h0.474L114.646,67.205z
	 M114.473,66.737h0.339l0.68,1.762h-0.35l-0.139-0.363h-0.719l-0.145,0.363h-0.352L114.473,66.737z"/>
<polygon points="115.807,66.737 116.124,66.737 116.887,67.897 116.887,66.737 117.221,66.737 117.221,68.499 116.901,68.499
	116.141,67.344 116.141,68.499 115.807,68.499 "/>
<line x1="0" y1="23.79" x2="196.356" y2="23.79"/>
</svg>
